<svg width="36" height="36" viewBox="0 0 36 36" fill="none" xmlns="http://www.w3.org/2000/svg">
<g clip-path="url(#clip0_464_209)">
<path d="M20.75 10C22.9591 10 24.75 8.20914 24.75 6C24.75 3.79086 22.9591 2 20.75 2C18.5409 2 16.75 3.79086 16.75 6C16.75 8.20914 18.5409 10 20.75 10Z" fill="white"/>
<path d="M24.84 26.23C24.7295 26.1557 24.6053 26.1041 24.4746 26.0785C24.3439 26.0528 24.2095 26.0535 24.079 26.0805C23.9486 26.1075 23.8249 26.1603 23.7152 26.2358C23.6055 26.3113 23.5119 26.4079 23.44 26.52C22.4733 27.9516 21.2891 29.2236 19.93 30.29C19.6 30.54 18.37 31.49 17.85 31.29C17.49 31.18 17.7 30.47 17.77 30.17L18.3 28.6C18.52 27.96 22.35 16.6 22.77 15.3C23.39 13.4 23.12 11.53 20.29 11.98C19.52 12.06 11.71 13.07 11.57 13.08C11.4387 13.0885 11.3104 13.1229 11.1923 13.181C11.0743 13.2391 10.9688 13.32 10.882 13.4189C10.7952 13.5177 10.7287 13.6328 10.6863 13.7574C10.6439 13.882 10.6265 14.0137 10.635 14.145C10.6436 14.2763 10.6779 14.4047 10.736 14.5227C10.7942 14.6408 10.875 14.7462 10.9739 14.8331C11.0728 14.9199 11.1878 14.9864 11.3124 15.0288C11.437 15.0711 11.5687 15.0885 11.7 15.08C11.7 15.08 14.7 14.69 15.03 14.66C15.1991 14.6435 15.3693 14.6763 15.5201 14.7543C15.6709 14.8324 15.7959 14.9525 15.88 15.1C16.0612 15.6601 16.0364 16.2666 15.81 16.81C15.55 17.81 11.44 29.39 11.31 30.06C11.1706 30.6207 11.2093 31.2108 11.4208 31.7485C11.6323 32.2862 12.006 32.7446 12.49 33.06C13.3986 33.6655 14.4803 33.957 15.57 33.89C16.6297 33.8778 17.6777 33.6675 18.66 33.27C21.15 32.27 23.75 29.61 25.12 27.52C25.238 27.3077 25.2747 27.0596 25.2231 26.8222C25.1716 26.5848 25.0354 26.3743 24.84 26.23Z" fill="white"/>
</g>
<defs>
<clipPath id="clip0_464_209">
<rect width="36" height="36" fill="white"/>
</clipPath>
</defs>
</svg>
