<svg width="36" height="36" viewBox="0 0 36 36" fill="none" xmlns="http://www.w3.org/2000/svg">
<path fill-rule="evenodd" clip-rule="evenodd" d="M18 21.183L25.9545 29.1375C26.3766 29.5596 26.9491 29.7967 27.546 29.7967C28.1429 29.7967 28.7154 29.5596 29.1375 29.1375C29.5596 28.7154 29.7967 28.1429 29.7967 27.546C29.7967 26.9491 29.5596 26.3766 29.1375 25.9545L21.18 18L29.136 10.0455C29.3449 9.83651 29.5106 9.58842 29.6236 9.31538C29.7366 9.04235 29.7948 8.74973 29.7947 8.45423C29.7946 8.15873 29.7364 7.86614 29.6232 7.59316C29.5101 7.32018 29.3443 7.07216 29.1353 6.86326C28.9263 6.65436 28.6782 6.48867 28.4051 6.37565C28.1321 6.26264 27.8395 6.2045 27.544 6.20457C27.2485 6.20464 26.9559 6.26291 26.6829 6.37606C26.4099 6.48921 26.1619 6.65501 25.953 6.86401L18 14.8185L10.0455 6.86401C9.83805 6.64902 9.58985 6.47749 9.3154 6.35945C9.04095 6.2414 8.74573 6.17919 8.44698 6.17646C8.14823 6.17372 7.85193 6.23051 7.57536 6.34351C7.29879 6.45651 7.04749 6.62346 6.83614 6.83462C6.62478 7.04578 6.45759 7.29692 6.34433 7.57338C6.23107 7.84984 6.174 8.14609 6.17645 8.44484C6.17891 8.7436 6.24083 9.03887 6.35862 9.31343C6.47641 9.588 6.6477 9.83636 6.8625 10.044L14.82 18L6.864 25.956C6.6492 26.1637 6.47791 26.412 6.36012 26.6866C6.24234 26.9612 6.18041 27.2564 6.17795 27.5552C6.1755 27.8539 6.23257 28.1502 6.34583 28.4266C6.45909 28.7031 6.62628 28.9542 6.83764 29.1654C7.04899 29.3766 7.30029 29.5435 7.57686 29.6565C7.85343 29.7695 8.14973 29.8263 8.44848 29.8236C8.74723 29.8208 9.04245 29.7586 9.3169 29.6406C9.59135 29.5225 9.83955 29.351 10.047 29.136L18 21.183Z" fill="#FFF8F8"/>
</svg>
