<svg width="48" height="48" viewBox="0 0 48 48" fill="none" xmlns="http://www.w3.org/2000/svg">
<path d="M38.433 4.34702C37.5891 3.5034 36.4448 3.02948 35.2515 3.02948C34.0583 3.02948 32.9139 3.5034 32.07 4.34702L26.886 9.52802C26.6648 8.5279 26.109 7.63319 25.3104 6.99173C24.5118 6.35026 23.5183 6.00042 22.494 6.00002H13.494C12.3006 6.00002 11.156 6.47412 10.312 7.31804C9.46813 8.16195 8.99402 9.30654 8.99402 10.5V18.624C9.97474 18.3468 10.979 18.161 11.994 18.069V10.5C11.994 10.1022 12.1521 9.72066 12.4334 9.43936C12.7147 9.15805 13.0962 9.00002 13.494 9.00002H22.494C22.8918 9.00002 23.2734 9.15805 23.5547 9.43936C23.836 9.72066 23.994 10.1022 23.994 10.5V21H22.989C24.543 22.092 25.899 23.448 26.994 24.999V24H37.5C37.8978 24 38.2794 24.1581 38.5607 24.4394C38.842 24.7207 39 25.1022 39 25.5V34.5C39 34.8978 38.842 35.2794 38.5607 35.5607C38.2794 35.842 37.8978 36 37.5 36H29.934C29.8421 37.015 29.6563 38.0193 29.379 39H37.5C38.6935 39 39.8381 38.5259 40.682 37.682C41.5259 36.8381 42 35.6935 42 34.5V25.5C42.0004 24.5021 41.6691 23.5323 41.0582 22.7432C40.4472 21.9541 39.5913 21.3905 38.625 21.141L43.746 16.023C44.1642 15.6051 44.4959 15.1089 44.7222 14.5628C44.9486 14.0166 45.0651 13.4312 45.0651 12.84C45.0651 12.2488 44.9486 11.6634 44.7222 11.1173C44.4959 10.5711 44.1642 10.0749 43.746 9.65702L38.433 4.34702ZM26.994 16.257L31.734 21H26.994V16.257ZM6.19802 25.326C6.41408 26.0959 6.47406 26.9012 6.37444 27.6946C6.27483 28.488 6.01762 29.2535 5.61795 29.9461C5.21827 30.6387 4.68419 31.2444 4.04709 31.7276C3.40998 32.2109 2.68272 32.5619 1.90802 32.76L0.522025 33.114C0.421853 34.1281 0.431912 35.1501 0.552025 36.162L1.60202 36.411C2.39741 36.5991 3.14598 36.9477 3.80182 37.4355C4.45765 37.9232 5.00692 38.5398 5.41593 39.2474C5.82494 39.955 6.08506 40.7388 6.18034 41.5505C6.27563 42.3623 6.20406 43.1849 5.97002 43.968L5.58902 45.234C6.36502 45.848 7.20002 46.366 8.09402 46.788L9.06902 45.756C9.63033 45.1617 10.3072 44.6883 11.058 44.365C11.8088 44.0416 12.6178 43.8751 13.4353 43.8757C14.2528 43.8762 15.0616 44.0438 15.812 44.3682C16.5624 44.6926 17.2385 45.1669 17.799 45.762L18.81 46.836C19.69 46.428 20.512 45.93 21.276 45.342L20.808 43.671C20.5924 42.9013 20.5328 42.0963 20.6326 41.3032C20.7325 40.5102 20.9898 39.7451 21.3894 39.0528C21.789 38.3606 22.323 37.7552 22.9598 37.2721C23.5967 36.7891 24.3237 36.4382 25.098 36.24L26.478 35.886C26.5784 34.8709 26.5684 33.8479 26.448 32.835L25.404 32.589C24.6083 32.401 23.8594 32.0523 23.2033 31.5643C22.5472 31.0764 21.9978 30.4595 21.5888 29.7515C21.1797 29.0436 20.9197 28.2595 20.8246 27.4474C20.7296 26.6353 20.8015 25.8123 21.036 25.029L21.414 23.763C20.6411 23.151 19.8007 22.6296 18.909 22.209L17.934 23.241C17.3729 23.8356 16.6963 24.3092 15.9455 24.6328C15.1948 24.9564 14.3859 25.1232 13.5684 25.1229C12.7509 25.1226 11.9421 24.9553 11.1916 24.6311C10.4411 24.307 9.76471 23.8329 9.20402 23.238L8.19302 22.164C7.31896 22.5676 6.49282 23.0677 5.73002 23.655L6.19802 25.326ZM13.5 37.5C12.7044 37.5 11.9413 37.1839 11.3787 36.6213C10.8161 36.0587 10.5 35.2957 10.5 34.5C10.5 33.7044 10.8161 32.9413 11.3787 32.3787C11.9413 31.8161 12.7044 31.5 13.5 31.5C14.2957 31.5 15.0587 31.8161 15.6213 32.3787C16.184 32.9413 16.5 33.7044 16.5 34.5C16.5 35.2957 16.184 36.0587 15.6213 36.6213C15.0587 37.1839 14.2957 37.5 13.5 37.5Z" fill="#36BB24"/>
</svg>
