<svg width="48" height="48" viewBox="0 0 48 48" fill="none" xmlns="http://www.w3.org/2000/svg">
<path d="M43 9C43 10.0609 42.5786 11.0783 41.8284 11.8284C41.0783 12.5786 40.0609 13 39 13C37.9391 13 36.9217 12.5786 36.1716 11.8284C35.4214 11.0783 35 10.0609 35 9C35 7.93913 35.4214 6.92172 36.1716 6.17157C36.9217 5.42143 37.9391 5 39 5C40.0609 5 41.0783 5.42143 41.8284 6.17157C42.5786 6.92172 43 7.93913 43 9Z" stroke="#36BB24" stroke-width="3"/>
<path d="M40.942 18.812C41 20.58 41 22.624 41 25C41 33.486 41 37.728 38.364 40.364C35.728 43 31.484 43 23 43C14.516 43 10.272 43 7.636 40.364C5 37.728 5 33.484 5 25C5 16.516 5 12.272 7.636 9.636C10.272 7 14.516 7 23 7C25.376 7 27.42 7 29.188 7.058" stroke="#36BB24" stroke-width="3" stroke-linecap="round" stroke-linejoin="round"/>
<path d="M11 25H16L20 17L26 33L30 25H35" stroke="#36BB24" stroke-width="3" stroke-linecap="round" stroke-linejoin="round"/>
</svg>
