<svg width="128" height="229" viewBox="0 0 128 229" fill="none" xmlns="http://www.w3.org/2000/svg">
<path d="M69.873 201.562C69.0918 160.742 68.7012 129.932 68.7012 109.131C68.7012 85.1074 69.1895 57.8125 70.166 27.2461C70.3613 19.8242 86.6699 15.1367 119.092 13.1836C119.678 11.3281 119.678 9.0332 119.092 6.29883C93.5059 7.08008 73.5352 7.4707 59.1797 7.4707C47.168 7.4707 30.127 7.08008 8.05664 6.29883C7.27539 8.05664 7.27539 10.3516 8.05664 13.1836C30.5176 15.332 41.8457 20.0195 42.041 27.2461C43.0176 50.1953 43.5059 77.4902 43.5059 109.131C43.5059 140.088 42.9199 170.898 41.748 201.562C41.5527 208.789 30.2246 213.477 7.76367 215.625C6.98242 217.188 6.98242 219.482 7.76367 222.51C24.3652 221.924 41.4062 221.631 58.8867 221.631C79.6875 221.631 99.6582 221.924 118.799 222.51C119.58 220.947 119.58 218.652 118.799 215.625C86.377 213.672 70.0684 208.984 69.873 201.562ZM3.36914 18.8965C1.70898 12.4512 1.9043 6.15234 3.95508 0C12.5488 0 24.1699 0.244141 38.8184 0.732422C53.5645 1.2207 63.8184 1.46484 69.5801 1.46484C73.7793 1.46484 81.8848 1.36719 93.8965 1.17188C105.908 0.976563 116.309 0.878906 125.098 0.878906C126.953 6.44531 127.051 12.4512 125.391 18.8965C103.809 21.0449 92.9199 23.9258 92.7246 27.5391C91.5527 51.9531 90.9668 82.7637 90.9668 119.971C90.9668 155.908 91.4551 183.008 92.4316 201.27C92.4316 201.855 92.6758 202.441 93.1641 203.027C93.6523 203.613 94.3359 204.102 95.2148 204.492C96.1914 204.883 97.168 205.322 98.1445 205.811C99.1211 206.201 100.439 206.592 102.1 206.982C103.857 207.373 105.322 207.715 106.494 208.008C107.666 208.301 109.229 208.594 111.182 208.887C113.232 209.18 114.844 209.424 116.016 209.619C117.285 209.814 118.945 210.01 120.996 210.205C123.145 210.4 124.609 210.596 125.391 210.791C127.051 216.26 126.758 222.266 124.512 228.809C88.4766 228.027 66.6016 227.637 58.8867 227.637C53.6133 227.637 35.2051 228.027 3.66211 228.809C1.2207 222.07 1.2207 215.771 3.66211 209.912C24.8535 207.764 35.5469 204.883 35.7422 201.27C36.9141 176.855 37.5 146.143 37.5 109.131C37.5 77.6855 37.0117 50.4883 36.0352 27.5391C35.8398 23.9258 24.9512 21.0449 3.36914 18.8965Z" fill="black"/>
</svg>
