<svg width="176" height="239" viewBox="0 0 176 239" fill="none" xmlns="http://www.w3.org/2000/svg">
<path d="M84.9609 0C98.9258 0 111.768 1.95312 123.486 5.85938C135.205 9.76563 145.752 12.3047 155.127 13.4766C149.951 31.6406 149.756 51.2207 154.541 72.2168C149.561 76.416 143.848 78.8574 137.402 79.541C136.621 77.6855 135.205 73.8281 133.154 67.9688C131.201 62.0117 129.297 57.1289 127.441 53.3203C125.684 49.5117 123.193 45.166 119.971 40.2832C116.846 35.4004 112.646 31.543 107.373 28.7109C102.197 25.7812 96.2402 23.7793 89.502 22.7051C79.6387 23.584 72.0215 26.6113 66.6504 31.7871C61.2793 36.9629 58.5938 43.6523 58.5938 51.8555C58.5938 60.2539 60.7422 67.1875 65.0391 72.6562C69.3359 78.0273 74.9023 82.0801 81.7383 84.8145C88.6719 87.4512 96.2891 89.7949 104.59 91.8457C112.891 93.7988 121.143 96.2402 129.346 99.1699C137.549 102.002 145.068 105.762 151.904 110.449C158.838 115.039 164.453 121.924 168.75 131.104C173.047 140.283 175.195 151.465 175.195 164.648C175.195 180.664 170.557 194.434 161.279 205.957C152.002 217.48 141.064 225.732 128.467 230.713C115.869 235.693 102.979 238.184 89.7949 238.184C60.791 238.184 32.0801 231.787 3.66211 218.994C4.24805 206.396 4.54102 198.682 4.54102 195.85C4.54102 180.029 3.02734 163.037 0 144.873C8.78906 140.674 18.6035 140.479 29.4434 144.287C33.0566 166.455 40.0391 183.447 50.3906 195.264C60.8398 207.08 72.2656 213.672 84.668 215.039C96.2891 214.258 105.225 210.498 111.475 203.76C117.822 196.924 120.996 188.281 120.996 177.832C120.996 169.043 118.945 161.621 114.844 155.566C110.742 149.414 105.322 144.678 98.584 141.357C91.8457 137.939 84.5215 134.863 76.6113 132.129C68.7988 129.395 60.8887 126.514 52.8809 123.486C44.873 120.361 37.5 116.65 30.7617 112.354C24.1211 108.057 18.75 102.051 14.6484 94.3359C10.5469 86.6211 8.49609 77.2461 8.49609 66.2109C8.49609 56.25 10.0586 47.3145 13.1836 39.4043C16.4062 31.4941 20.5566 25.1465 25.6348 20.3613C30.8105 15.5762 36.8164 11.5723 43.6523 8.34961C50.5859 5.12695 57.4219 2.92969 64.1602 1.75781C70.9961 0.585938 77.9297 0 84.9609 0ZM84.9609 6.00586C76.7578 6.00586 68.7988 6.98242 61.084 8.93555C53.3691 10.791 45.8496 13.8672 38.5254 18.1641C31.2988 22.4609 25.4883 28.7598 21.0938 37.0605C16.6992 45.3613 14.502 55.0781 14.502 66.2109C14.502 76.0742 16.5527 84.5703 20.6543 91.6992C24.7559 98.7305 30.127 104.199 36.7676 108.105C43.5059 112.012 50.8789 115.479 58.8867 118.506C66.8945 121.436 74.8047 124.414 82.6172 127.441C90.5273 130.469 97.8516 133.887 104.59 137.695C111.328 141.504 116.748 146.826 120.85 153.662C124.951 160.4 127.002 168.457 127.002 177.832C127.002 190.82 122.852 201.318 114.551 209.326C106.25 217.334 94.4824 221.338 79.248 221.338C64.5996 221.338 50.9766 215.234 38.3789 203.027C25.7812 190.82 17.4805 172.559 13.4766 148.242C11.5234 146.973 9.22852 146.973 6.5918 148.242C9.22852 163.574 10.5469 179.443 10.5469 195.85C10.5469 200.439 10.3516 206.934 9.96094 215.332C34.1797 226.562 57.2754 232.178 79.248 232.178C97.4121 232.178 114.209 226.807 129.639 216.064C145.068 205.225 152.783 190.088 152.783 170.654C152.783 159.619 150.635 150.293 146.338 142.676C142.041 134.961 136.426 128.955 129.492 124.658C122.559 120.361 114.941 116.65 106.641 113.525C98.3398 110.4 90.0879 107.471 81.8848 104.736C73.6816 101.904 66.1133 98.7793 59.1797 95.3613C52.3438 91.9434 46.7773 87.1094 42.4805 80.8594C38.1836 74.5117 36.0352 66.8457 36.0352 57.8613C36.0352 45.2637 40.2832 35.2051 48.7793 27.6855C57.2754 20.166 69.3359 16.4062 84.9609 16.4062C112.109 16.4062 130.811 35.2051 141.064 72.8027C144.092 73.291 146.191 72.6074 147.363 70.752C144.141 46.9238 137.061 30.1758 126.123 20.5078C115.283 10.8398 101.562 6.00586 84.9609 6.00586Z" fill="black"/>
</svg>
