<svg width="24" height="24" viewBox="0 0 24 24" fill="none" xmlns="http://www.w3.org/2000/svg">
<path d="M8 20C7.71667 20 7.47933 19.904 7.288 19.712C7.09667 19.52 7.00067 19.2827 7 19V5C7 4.71667 7.096 4.47933 7.288 4.288C7.48 4.09667 7.71733 4.00067 8 4H16C16.2833 4 16.521 4.096 16.713 4.288C16.905 4.48 17.0007 4.71733 17 5V19C17 19.2833 16.904 19.521 16.712 19.713C16.52 19.905 16.2827 20.0007 16 20H8ZM3 17V6.975C3 6.69167 3.096 6.45833 3.288 6.275C3.48 6.09167 3.71733 6 4 6C4.28267 6 4.52033 6.096 4.713 6.288C4.90567 6.48 5.00133 6.71733 5 7V17.025C5 17.3083 4.904 17.5417 4.712 17.725C4.52 17.9083 4.28267 18 4 18C3.71733 18 3.48 17.904 3.288 17.712C3.096 17.52 3 17.2827 3 17ZM19 17V6.975C19 6.69167 19.096 6.45833 19.288 6.275C19.48 6.09167 19.7173 6 20 6C20.2827 6 20.5203 6.096 20.713 6.288C20.9057 6.48 21.0013 6.71733 21 7V17.025C21 17.3083 20.904 17.5417 20.712 17.725C20.52 17.9083 20.2827 18 20 18C19.7173 18 19.48 17.904 19.288 17.712C19.096 17.52 19 17.2827 19 17Z" fill="white"/>
</svg>
