<svg width="352" height="282" viewBox="0 0 352 282" fill="none" xmlns="http://www.w3.org/2000/svg">
<g filter="url(#filter0_d_612_248)">
<path d="M243.001 144.033C245.72 142.2 249.28 142.2 251.999 144.033C254.355 145.621 257.373 145.85 259.941 144.635L260.972 144.147C263.68 142.866 266.899 143.395 269.054 145.476C270.958 147.314 273.717 147.96 276.239 147.158L278.539 146.427C281.127 145.604 283.948 146.577 285.478 148.819C286.854 150.834 289.29 151.845 291.688 151.395L295.055 150.763C297.483 150.308 299.889 151.656 300.768 153.966C301.569 156.069 303.651 157.4 305.896 157.243L309.927 156.962C312.214 156.802 314.216 158.484 314.452 160.764C314.67 162.861 316.391 164.482 318.497 164.573L322.656 164.754C324.851 164.849 326.467 166.844 326.106 169.011C325.772 171.013 327.133 172.905 329.138 173.225L332.856 173.818C335.013 174.162 336.256 176.46 335.364 178.454C334.538 180.299 335.538 182.447 337.481 183.003L340.269 183.801C342.429 184.419 343.294 187.014 341.936 188.804C340.683 190.455 341.309 192.842 343.209 193.667L344.756 194.338C346.933 195.283 347.392 198.169 345.616 199.742C343.991 201.181 344.21 203.779 346.054 204.925L346.288 205.071C348.459 206.42 348.459 209.58 346.288 210.929L346.054 211.075C344.21 212.221 343.991 214.819 345.616 216.258C347.392 217.831 346.933 220.717 344.756 221.662L343.209 222.333C341.309 223.158 340.683 225.545 341.936 227.196C343.294 228.986 342.429 231.581 340.269 232.199L337.481 232.997C335.538 233.553 334.538 235.701 335.364 237.546C336.256 239.54 335.013 241.838 332.856 242.182L329.138 242.775C327.133 243.095 325.772 244.987 326.106 246.989C326.467 249.156 324.851 251.151 322.656 251.246L318.497 251.427C316.391 251.518 314.67 253.139 314.452 255.236C314.216 257.516 312.214 259.198 309.927 259.038L305.896 258.757C303.651 258.6 301.569 259.931 300.768 262.034C299.889 264.344 297.483 265.692 295.055 265.237L291.688 264.605C289.29 264.155 286.854 265.166 285.478 267.181C283.948 269.423 281.127 270.396 278.539 269.573L276.239 268.842C273.717 268.04 270.958 268.686 269.054 270.524C266.899 272.605 263.68 273.134 260.972 271.853L259.941 271.365C257.373 270.15 254.355 270.379 251.999 271.967C249.28 273.8 245.72 273.8 243.001 271.967C240.645 270.379 237.627 270.15 235.059 271.365L234.028 271.853C231.32 273.134 228.101 272.605 225.946 270.524C224.042 268.686 221.283 268.04 218.761 268.842L216.461 269.573C213.873 270.396 211.052 269.423 209.522 267.181C208.146 265.166 205.71 264.155 203.312 264.605L199.945 265.237C197.517 265.692 195.111 264.344 194.232 262.034C193.431 259.931 191.349 258.6 189.104 258.757L185.073 259.038C182.786 259.198 180.784 257.516 180.548 255.236C180.33 253.139 178.609 251.518 176.503 251.427L172.344 251.246C170.149 251.151 168.533 249.156 168.894 246.989C169.228 244.987 167.867 243.095 165.862 242.775L162.144 242.182C159.987 241.838 158.744 239.54 159.636 237.546C160.462 235.701 159.462 233.553 157.519 232.997L154.731 232.199C152.571 231.581 151.706 228.986 153.064 227.196C154.317 225.545 153.691 223.158 151.791 222.333L150.244 221.662C148.067 220.717 147.608 217.831 149.385 216.258C151.009 214.819 150.79 212.221 148.946 211.075L148.712 210.929C146.541 209.58 146.541 206.42 148.712 205.071L148.946 204.925C150.79 203.779 151.009 201.181 149.385 199.742C147.608 198.169 148.067 195.283 150.244 194.338L151.791 193.667C153.691 192.842 154.317 190.455 153.064 188.804C151.706 187.014 152.571 184.419 154.731 183.801L157.519 183.003C159.462 182.447 160.462 180.299 159.636 178.454C158.744 176.46 159.987 174.162 162.144 173.818L165.862 173.225C167.867 172.905 169.228 171.013 168.894 169.011C168.533 166.844 170.149 164.849 172.344 164.754L176.503 164.573C178.609 164.482 180.33 162.861 180.548 160.764C180.784 158.484 182.786 156.802 185.073 156.962L189.104 157.243C191.349 157.4 193.431 156.069 194.232 153.966C195.111 151.656 197.517 150.308 199.945 150.763L203.312 151.395C205.71 151.845 208.146 150.834 209.522 148.819C211.052 146.577 213.873 145.604 216.461 146.427L218.761 147.158C221.283 147.96 224.042 147.314 225.946 145.476C228.101 143.395 231.32 142.866 234.028 144.147L235.059 144.635C237.627 145.85 240.645 145.621 243.001 144.033Z" fill="white"/>
<path d="M243.28 144.447C245.831 142.728 249.169 142.728 251.72 144.447C254.222 146.134 257.428 146.377 260.155 145.087L261.186 144.599C263.706 143.406 266.701 143.899 268.707 145.836C270.743 147.802 273.694 148.492 276.391 147.635L278.69 146.903C281.067 146.148 283.659 147.041 285.065 149.101C286.553 151.279 289.188 152.373 291.78 151.887L295.146 151.255C297.337 150.844 299.508 152.06 300.301 154.144C301.179 156.453 303.466 157.914 305.931 157.742L309.962 157.46C311.98 157.319 313.746 158.804 313.955 160.815C314.198 163.159 316.121 164.97 318.475 165.072L322.634 165.253C324.529 165.335 325.924 167.058 325.612 168.929C325.233 171.205 326.78 173.355 329.06 173.719L332.777 174.312C334.61 174.604 335.665 176.555 334.907 178.249C333.957 180.372 335.108 182.845 337.344 183.484L340.132 184.281C341.954 184.803 342.683 186.992 341.537 188.502C340.089 190.41 340.812 193.171 343.01 194.125L344.557 194.797C346.398 195.596 346.787 198.037 345.284 199.368C343.409 201.029 343.662 204.027 345.79 205.35L346.023 205.495C347.88 206.649 347.88 209.351 346.023 210.505L345.79 210.65C343.662 211.973 343.409 214.971 345.284 216.632C346.787 217.963 346.398 220.404 344.557 221.203L343.01 221.875C340.812 222.829 340.089 225.59 341.537 227.498C342.683 229.008 341.954 231.197 340.132 231.719L337.344 232.516C335.108 233.155 333.957 235.628 334.907 237.751C335.665 239.445 334.61 241.396 332.777 241.688L329.06 242.281C326.78 242.645 325.233 244.795 325.612 247.071C325.924 248.942 324.529 250.665 322.634 250.747L318.475 250.928C316.121 251.03 314.198 252.841 313.955 255.185C313.746 257.196 311.98 258.681 309.962 258.54L305.931 258.258C303.466 258.086 301.179 259.547 300.301 261.856C299.508 263.94 297.337 265.156 295.146 264.745L291.78 264.113C289.188 263.627 286.553 264.721 285.065 266.899C283.659 268.959 281.067 269.852 278.69 269.097L276.391 268.365C273.694 267.508 270.743 268.198 268.707 270.164C266.701 272.101 263.706 272.594 261.186 271.401L260.155 270.913C257.428 269.623 254.222 269.866 251.72 271.553C249.169 273.272 245.831 273.272 243.28 271.553C240.778 269.866 237.572 269.623 234.845 270.913L233.814 271.401C231.294 272.594 228.299 272.101 226.293 270.164C224.257 268.198 221.306 267.508 218.609 268.365L216.31 269.097C213.933 269.852 211.341 268.959 209.935 266.899C208.447 264.721 205.812 263.627 203.22 264.113L199.854 264.745C197.663 265.156 195.492 263.94 194.699 261.856C193.821 259.547 191.534 258.086 189.069 258.258L185.038 258.54C183.02 258.681 181.254 257.196 181.045 255.185C180.802 252.841 178.879 251.03 176.525 250.928L172.366 250.747C170.471 250.665 169.076 248.942 169.388 247.071C169.767 244.795 168.22 242.645 165.94 242.281L162.223 241.688C160.39 241.396 159.335 239.445 160.093 237.751C161.043 235.628 159.892 233.155 157.656 232.516L154.868 231.719C153.046 231.197 152.317 229.008 153.463 227.498C154.911 225.59 154.188 222.829 151.99 221.875L150.443 221.203C148.602 220.404 148.213 217.963 149.716 216.632C151.591 214.971 151.338 211.973 149.21 210.65L148.977 210.505C147.12 209.351 147.12 206.649 148.977 205.495L149.21 205.35C151.338 204.027 151.591 201.029 149.716 199.368C148.213 198.037 148.602 195.596 150.443 194.797L151.99 194.125C154.188 193.171 154.911 190.41 153.463 188.502C152.317 186.992 153.046 184.803 154.868 184.281L157.656 183.484C159.892 182.845 161.043 180.372 160.093 178.249C159.335 176.555 160.39 174.604 162.223 174.312L165.94 173.719C168.22 173.355 169.767 171.205 169.388 168.929C169.076 167.058 170.471 165.335 172.366 165.253L176.525 165.072C178.879 164.97 180.802 163.159 181.045 160.815C181.254 158.804 183.02 157.319 185.038 157.46L189.069 157.742C191.534 157.914 193.821 156.453 194.699 154.144C195.492 152.06 197.663 150.844 199.854 151.255L203.22 151.887C205.812 152.373 208.447 151.279 209.935 149.101C211.341 147.041 213.933 146.148 216.31 146.903L218.609 147.635C221.306 148.492 224.257 147.802 226.293 145.836C228.299 143.899 231.294 143.406 233.814 144.599L234.845 145.087C237.572 146.377 240.778 146.134 243.28 144.447Z" stroke="#36BB24"/>
</g>
<g filter="url(#filter1_n_612_248)">
<path d="M99.0408 5.12548C101.724 3.23986 105.283 3.17087 108.038 4.95109C110.424 6.49311 113.446 6.66326 115.99 5.3988L117.011 4.89115C119.694 3.55762 122.922 4.02445 125.117 6.06338C127.057 7.86443 129.827 8.4568 132.333 7.60609L134.619 6.83012C137.19 5.95736 140.029 6.87497 141.603 9.08738C143.017 11.0752 145.473 12.0385 147.862 11.5424L151.215 10.8456C153.635 10.3431 156.067 11.6449 156.99 13.9368C157.831 16.024 159.939 17.3147 162.181 17.1143L166.206 16.7545C168.489 16.5505 170.523 18.1935 170.803 20.4688C171.061 22.5608 172.813 24.148 174.921 24.1986L179.083 24.2987C181.279 24.3514 182.934 26.3142 182.614 28.4877C182.319 30.4967 183.717 32.3617 185.728 32.6426L189.456 33.1633C191.62 33.4654 192.907 35.7388 192.054 37.7498C191.264 39.6103 192.305 41.7392 194.259 42.2573L197.062 43.0005C199.233 43.5765 200.148 46.1549 198.825 47.9708C197.605 49.6451 198.276 52.02 200.192 52.8078L201.752 53.4492C203.947 54.3515 204.462 57.2279 202.716 58.8354C201.119 60.3059 201.389 62.8992 203.255 64.0092L203.491 64.15C205.688 65.4572 205.749 68.6161 203.605 70.0075L203.374 70.1574C201.553 71.3388 201.384 73.9406 203.036 75.3481C204.843 76.8868 204.44 79.7809 202.282 80.7677L200.748 81.469C198.864 82.3304 198.285 84.7295 199.569 86.3553C200.962 88.1186 200.147 90.7306 198 91.3902L195.228 92.2415C193.295 92.835 192.337 95.0025 193.199 96.8311C194.13 98.8075 192.932 101.129 190.781 101.515L187.076 102.18C185.077 102.538 183.753 104.456 184.125 106.452C184.529 108.611 182.951 110.637 180.759 110.775L176.604 111.036C174.5 111.168 172.811 112.822 172.634 114.923C172.442 117.207 170.473 118.928 168.184 118.812L164.148 118.609C161.9 118.495 159.844 119.867 159.084 121.985C158.25 124.311 155.871 125.706 153.434 125.297L150.055 124.731C147.65 124.328 145.233 125.386 143.897 127.427C142.41 129.699 139.609 130.726 137.006 129.953L134.691 129.266C132.154 128.513 129.409 129.213 127.541 131.087C125.426 133.21 122.218 133.802 119.486 132.573L118.446 132.105C115.855 130.94 112.841 131.227 110.517 132.861C107.834 134.746 104.275 134.815 101.52 133.035C99.1341 131.493 96.112 131.323 93.5681 132.587L92.5468 133.095C89.8639 134.429 86.6356 133.962 84.4404 131.923C82.5013 130.122 79.7306 129.529 77.2245 130.38L74.9386 131.156C72.3676 132.029 69.5286 131.111 67.9547 128.899C66.5406 126.911 64.0848 125.948 61.6964 126.444L58.3424 127.141C55.9232 127.643 53.4913 126.341 52.5679 124.049C51.7269 121.962 49.6187 120.672 47.3773 120.872L43.3523 121.232C41.069 121.436 39.035 119.793 38.7545 117.517C38.4966 115.425 36.7446 113.838 34.6373 113.788L30.4752 113.688C28.2791 113.635 26.6243 111.672 26.9436 109.499C27.2387 107.49 25.8412 105.625 23.8301 105.344L20.1016 104.823C17.9379 104.521 16.6505 102.247 17.5044 100.236C18.2943 98.3759 17.2528 96.2471 15.299 95.729L12.4962 94.9857C10.3244 94.4098 9.40963 91.8313 10.7329 90.0154C11.953 88.3411 11.2817 85.9662 9.36564 85.1784L7.80584 84.5371C5.61111 83.6347 5.09634 80.7584 6.8419 79.1508C8.43857 77.6804 8.16858 75.0871 6.30325 73.9771L6.06658 73.8362C3.86989 72.5291 3.80866 69.3701 5.95304 67.9788L6.18409 67.8289C8.005 66.6474 8.1743 64.0456 6.52184 62.6381C4.71531 61.0995 5.11822 58.2053 7.27635 57.2186L8.81012 56.5173C10.6942 55.6558 11.273 53.2567 9.98894 51.6309C8.59627 49.8677 9.41042 47.2557 11.5583 46.596L14.3302 45.7447C16.2624 45.1513 17.2207 42.9837 16.3592 41.1552C15.4281 39.1788 16.6264 36.8573 18.7768 36.4715L22.4823 35.8067C24.481 35.4481 25.8052 33.5303 25.4324 31.5342C25.0292 29.3748 26.6066 27.3494 28.7991 27.2115L32.9542 26.9503C35.0579 26.818 36.7471 25.1642 36.9238 23.0637C37.1159 20.7793 39.0846 19.0586 41.3742 19.1741L45.4101 19.3776C47.6575 19.4909 49.7142 18.1196 50.4737 16.0013C51.3075 13.6754 53.6872 12.2803 56.1241 12.6888L59.5025 13.255C61.9084 13.6582 64.325 12.6004 65.661 10.5593C67.1479 8.28759 69.9493 7.26065 72.5522 8.03313L74.8665 8.71995C77.4036 9.4729 80.1493 8.77361 82.0171 6.89877C84.1317 4.7763 87.3394 4.18473 90.072 5.4133L91.1122 5.88099C93.7032 7.04592 96.7165 6.75879 99.0408 5.12548Z" fill="white"/>
<path d="M99.3284 5.5341C101.845 3.7659 105.183 3.7012 107.766 5.37055C110.3 7.00836 113.511 7.18961 116.213 5.84661L117.233 5.33846C119.73 4.09751 122.735 4.5324 124.777 6.42977C126.851 8.35581 129.814 8.98912 132.494 8.07936L134.78 7.30349C137.141 6.50175 139.75 7.34451 141.196 9.3768C142.725 11.5263 145.381 12.5688 147.963 12.0323L151.317 11.3353C153.499 10.882 155.693 12.0562 156.526 14.1236C157.449 16.4151 159.764 17.8322 162.225 17.6124L166.25 17.2521C168.264 17.0721 170.059 18.5221 170.307 20.5296C170.595 22.8676 172.553 24.6413 174.908 24.698L179.07 24.7981C180.966 24.8436 182.395 26.539 182.119 28.4154C181.784 30.6989 183.373 32.8186 185.659 33.1378L189.387 33.6584C191.225 33.9152 192.318 35.8459 191.593 37.5539C190.684 39.6946 191.883 42.1449 194.131 42.741L196.934 43.4837C198.766 43.9697 199.537 46.1447 198.421 47.6764C197.01 49.6126 197.786 52.3587 200.002 53.2699L201.561 53.9116C203.418 54.6749 203.854 57.1082 202.377 58.468C200.535 60.1651 200.846 63.1574 202.999 64.4385L203.235 64.5794C205.114 65.6971 205.166 68.3986 203.332 69.5883L203.102 69.7383C201 71.1018 200.805 74.104 202.712 75.7284C204.24 77.0299 203.899 79.4783 202.073 80.3129L200.54 81.0147C198.361 82.011 197.691 84.7851 199.176 86.6652C200.351 88.1525 199.665 90.3558 197.853 90.9123L195.081 91.7631C192.858 92.4459 191.755 94.9408 192.746 97.0447C193.537 98.7233 192.519 100.695 190.693 101.023L186.988 101.687C184.716 102.095 183.21 104.275 183.634 106.543C183.982 108.408 182.62 110.157 180.727 110.276L176.572 110.537C174.221 110.685 172.333 112.534 172.136 114.881C171.966 116.897 170.229 118.415 168.209 118.313L164.173 118.109C161.705 117.985 159.447 119.491 158.613 121.816C157.861 123.914 155.714 125.173 153.516 124.804L150.138 124.238C147.537 123.802 144.923 124.946 143.479 127.154C142.113 129.24 139.539 130.184 137.147 129.474L134.834 128.787C132.121 127.982 129.184 128.73 127.187 130.735C125.219 132.71 122.233 133.261 119.691 132.117L118.651 131.649C115.899 130.412 112.698 130.717 110.229 132.452C107.713 134.22 104.375 134.285 101.792 132.616C99.2575 130.978 96.0472 130.797 93.3452 132.14L92.3246 132.648C89.828 133.889 86.8234 133.454 84.7806 131.556C82.7068 129.63 79.7435 128.997 77.0636 129.907L74.7784 130.683C72.4166 131.484 69.8078 130.642 68.362 128.609C66.8329 126.46 64.1772 125.417 61.5944 125.954L58.2411 126.651C56.0588 127.104 53.8647 125.93 53.0318 123.863C52.1085 121.571 49.7939 120.154 47.3332 120.374L43.3082 120.734C41.2935 120.914 39.4984 119.464 39.2507 117.457C38.9625 115.119 37.0046 113.345 34.6496 113.288L30.4877 113.188C28.5917 113.143 27.1628 111.447 27.4385 109.571C27.7736 107.287 26.1848 105.168 23.899 104.848L20.1705 104.328C18.3328 104.071 17.2397 102.14 17.9647 100.432C18.8736 98.2917 17.6751 95.8413 15.4272 95.2452L12.6241 94.5025C10.7923 94.0166 10.0212 91.8415 11.1373 90.3098C12.5481 88.3736 11.7716 85.6276 9.556 84.7164L7.99639 84.0746C6.13995 83.3113 5.70391 80.878 7.1804 79.5183C9.02312 77.8212 8.71155 74.8288 6.55873 73.5478L6.32255 73.4068C4.4443 72.2891 4.39194 69.5876 6.22547 68.398L6.456 68.248C8.55757 66.8844 8.75295 63.8823 6.84585 62.2579C5.31777 60.9563 5.6592 58.508 7.48467 57.6733L9.01823 56.9716C11.1969 55.9752 11.8664 53.2012 10.3816 51.3211C9.20695 49.8338 9.89323 47.6305 11.7049 47.0739L14.477 46.2232C16.7002 45.5404 17.8028 43.0455 16.8116 40.9416C16.021 39.263 17.0385 37.2914 18.8648 36.9635L22.5704 36.2988C24.8421 35.8913 26.3476 33.7116 25.9242 31.4429C25.576 29.5786 26.9381 27.8291 28.8309 27.7101L32.9858 27.4489C35.3368 27.3009 37.2245 25.4527 37.422 23.1052C37.5917 21.0897 39.3292 19.5711 41.3494 19.673L45.3853 19.8771C47.8527 20.0013 50.1106 18.4956 50.9444 16.17C51.6966 14.0719 53.8435 12.8136 56.0418 13.182L59.4196 13.7485C62.0212 14.1845 64.6345 13.0399 66.0792 10.8327C67.4452 8.74595 70.0193 7.80274 72.4104 8.51235L74.7239 9.19909C77.4372 10.0043 80.3737 9.25665 82.3712 7.2517C84.339 5.2766 87.3245 4.72561 89.8673 5.86887L90.9069 6.3371C93.6588 7.57439 96.8597 7.26887 99.3284 5.5341Z" stroke="#FC6A06"/>
</g>
<g filter="url(#filter2_d_612_248)">
<path d="M137.451 66.7375C139.102 63.9034 142.307 62.354 145.553 62.8208C148.365 63.2252 151.182 62.1174 152.965 59.9059L153.681 59.018C155.561 56.6857 158.69 55.7614 161.536 56.6969C164.05 57.5233 166.815 56.9041 168.736 55.0843L170.489 53.4244C172.461 51.5575 175.423 51.2053 177.777 52.558C179.893 53.7734 182.526 53.6228 184.489 52.1743L187.245 50.1403C189.234 48.6731 191.987 48.84 193.783 50.5366C195.419 52.0818 197.874 52.3737 199.827 51.2554L203.333 49.2472C205.323 48.108 207.857 48.7512 209.062 50.7013C210.171 52.4943 212.425 53.2045 214.361 52.3703L218.184 50.7226C220.202 49.8532 222.525 50.9453 223.143 53.0534C223.714 55.002 225.763 56.1127 227.708 55.5278L231.313 54.4435C233.405 53.8142 235.524 55.3419 235.588 57.5257C235.648 59.5462 237.483 61.0453 239.475 60.6999L242.332 60.2044C244.546 59.8205 246.454 61.7811 246.01 63.9837C245.601 66.0147 247.203 67.892 249.273 67.8074L250.958 67.7385C253.329 67.6416 254.998 70.04 254.084 72.2297C253.247 74.2327 254.576 76.4761 256.734 76.7054L257.008 76.7345C259.55 77.0046 260.925 79.8492 259.558 82.009L259.411 82.2417C258.25 84.0758 259.183 86.5105 261.272 87.099C263.556 87.7424 264.399 90.5402 262.851 92.3383L261.75 93.6161C260.398 95.1859 260.874 97.6074 262.72 98.5482C264.722 99.5685 265.073 102.282 263.397 103.778L261.235 105.71C259.727 107.056 259.762 109.426 261.308 110.727C262.98 112.134 262.861 114.744 261.068 115.993L257.979 118.144C256.313 119.305 255.911 121.601 257.083 123.259C258.352 125.052 257.765 127.551 255.83 128.592L252.164 130.565C250.308 131.564 249.464 133.773 250.181 135.755C250.961 137.911 249.891 140.296 247.762 141.148L244.01 142.649C241.921 143.485 240.625 145.59 240.82 147.832C241.034 150.293 239.455 152.555 237.07 153.202L233.764 154.098C231.41 154.737 229.656 156.708 229.294 159.12C228.892 161.805 226.776 163.909 224.089 164.294L221.699 164.637C219.079 165.012 216.877 166.795 215.963 169.278C214.928 172.09 212.261 173.968 209.265 173.993L208.124 174.002C205.284 174.026 202.666 175.546 201.236 178.001C199.586 180.835 196.381 182.384 193.135 181.917C190.323 181.513 187.506 182.621 185.723 184.832L185.007 185.72C183.126 188.053 179.998 188.977 177.152 188.041C174.638 187.215 171.873 187.834 169.951 189.654L168.198 191.314C166.227 193.181 163.264 193.533 160.91 192.18C158.795 190.965 156.161 191.115 154.198 192.564L151.442 194.598C149.454 196.065 146.701 195.898 144.904 194.202C143.268 192.657 140.814 192.365 138.861 193.483L135.354 195.491C133.365 196.63 130.831 195.987 129.625 194.037C128.517 192.244 126.262 191.534 124.326 192.368L120.503 194.016C118.486 194.885 116.162 193.793 115.545 191.685C114.973 189.736 112.925 188.626 110.98 189.21L107.375 190.295C105.283 190.924 103.164 189.396 103.099 187.213C103.04 185.192 101.204 183.693 99.2127 184.038L96.3557 184.534C94.1418 184.918 92.2336 182.957 92.6774 180.755C93.0866 178.724 91.4846 176.846 89.4146 176.931L87.7295 177C85.3585 177.097 83.6893 174.698 84.6037 172.509C85.4402 170.506 84.1116 168.262 81.9532 168.033L81.6793 168.004C79.1374 167.734 77.7622 164.889 79.1293 162.729L79.2766 162.497C80.4376 160.662 79.5045 158.228 77.4152 157.639C75.1311 156.996 74.2883 154.198 75.8369 152.4L76.9375 151.122C78.2895 149.552 77.8132 147.131 75.9674 146.19C73.9655 145.17 73.6141 142.457 75.2901 140.96L77.4529 139.029C78.9606 137.682 78.9259 135.313 77.3793 134.011C75.7077 132.604 75.8267 129.995 77.6194 128.746L80.7084 126.594C82.3746 125.433 82.7767 123.138 81.6042 121.48C80.3357 119.686 80.9229 117.187 82.8573 116.146L86.5234 114.173C88.3796 113.174 89.2235 110.966 88.5065 108.983C87.7269 106.828 88.7969 104.442 90.9253 103.59L94.6773 102.089C96.7666 101.254 98.0624 99.1484 97.8675 96.9066C97.6536 94.445 99.233 92.1834 101.618 91.5366L104.924 90.6398C107.278 90.0012 109.032 88.0306 109.393 85.6181C109.795 82.9329 111.911 80.8296 114.599 80.4442L116.989 80.1015C119.608 79.7258 121.811 77.9435 122.725 75.4598C123.759 72.6481 126.427 70.7707 129.423 70.7455L130.563 70.7359C133.404 70.712 136.022 69.1925 137.451 66.7375Z" fill="white"/>
<path d="M137.883 66.9886C139.431 64.3309 142.437 62.8777 145.482 63.3154C148.468 63.7449 151.461 62.5686 153.355 60.2197L154.07 59.3316C155.82 57.1613 158.731 56.3013 161.38 57.1719C164.068 58.0556 167.025 57.3932 169.08 55.4471L170.832 53.7876C172.643 52.0726 175.366 51.7485 177.528 52.9911C179.816 54.3053 182.664 54.1432 184.786 52.5768L187.542 50.5428C189.335 49.2193 191.819 49.3697 193.44 50.9001C195.236 52.5965 197.931 52.9172 200.075 51.6896L203.581 49.6809C205.337 48.6757 207.573 49.2434 208.637 50.9638C209.875 52.9677 212.395 53.7614 214.559 52.8292L218.382 51.1815C220.123 50.4309 222.13 51.3745 222.663 53.1945C223.313 55.4092 225.642 56.6714 227.852 56.0066L231.457 54.9221C233.234 54.3878 235.033 55.6854 235.088 57.54C235.157 59.8647 237.269 61.5904 239.561 61.193L242.418 60.6969C244.285 60.3732 245.894 62.0273 245.52 63.8852C245.047 66.2337 246.899 68.4043 249.293 68.3067L250.978 68.2383C252.984 68.1563 254.396 70.185 253.623 72.0372C252.657 74.3489 254.191 76.9375 256.682 77.2022L256.955 77.2316C259.129 77.4625 260.305 79.8952 259.136 81.742L258.989 81.9745C257.649 84.0913 258.726 86.9006 261.137 87.5799C263.069 88.1241 263.781 90.4912 262.471 92.0121L261.371 93.2903C259.808 95.1056 260.358 97.9057 262.493 98.9937C264.181 99.8544 264.478 102.143 263.065 103.405L260.901 105.336C259.167 106.885 259.207 109.613 260.986 111.11C262.406 112.305 262.305 114.521 260.783 115.582L257.694 117.734C255.8 119.053 255.342 121.663 256.675 123.547C257.77 125.095 257.263 127.254 255.593 128.153L251.927 130.126C249.853 131.242 248.91 133.71 249.711 135.925C250.399 137.827 249.454 139.933 247.576 140.684L243.824 142.185C241.531 143.103 240.108 145.414 240.322 147.875C240.515 150.096 239.09 152.136 236.939 152.719L233.633 153.615C231.087 154.306 229.191 156.438 228.8 159.046C228.431 161.513 226.486 163.445 224.017 163.799L221.628 164.142C218.827 164.544 216.471 166.45 215.494 169.106C214.531 171.722 212.048 173.47 209.26 173.493L208.12 173.502C205.103 173.528 202.323 175.142 200.804 177.75C199.256 180.407 196.25 181.861 193.206 181.423C190.219 180.993 187.227 182.17 185.333 184.519L184.618 185.407C182.868 187.577 179.956 188.437 177.308 187.566C174.619 186.683 171.662 187.345 169.607 189.291L167.855 190.951C166.044 192.666 163.322 192.99 161.159 191.747C158.872 190.433 156.024 190.595 153.901 192.161L151.146 194.195C149.352 195.519 146.868 195.369 145.248 193.838C143.452 192.142 140.757 191.821 138.613 193.049L135.106 195.057C133.351 196.063 131.114 195.495 130.051 193.774C128.812 191.771 126.292 190.977 124.129 191.909L120.306 193.557C118.564 194.307 116.558 193.364 116.024 191.544C115.375 189.329 113.046 188.067 110.836 188.732L107.231 189.816C105.454 190.35 103.654 189.053 103.599 187.198C103.531 184.874 101.419 183.148 99.1271 183.545L96.2701 184.041C94.4027 184.365 92.7935 182.711 93.1678 180.853C93.6408 178.505 91.7882 176.334 89.3945 176.432L87.7094 176.5C85.7039 176.582 84.2913 174.553 85.0648 172.701C86.0301 170.389 84.4971 167.801 82.0059 167.536L81.7325 167.507C79.5591 167.276 78.383 164.843 79.552 162.996L79.6988 162.764C81.0386 160.647 79.9621 157.838 77.5508 157.158C75.6187 156.614 74.9062 154.247 76.2161 152.726L77.3164 151.448C78.8796 149.633 78.3291 146.833 76.1948 145.745C74.5062 144.884 74.2094 142.595 75.6229 141.333L77.7862 139.402C79.5209 137.853 79.4805 135.126 77.7011 133.628C76.2816 132.433 76.3825 130.217 77.9049 129.156L80.994 127.004C82.8878 125.685 83.3452 123.076 82.0128 121.191C80.9177 119.643 81.4244 117.484 83.0945 116.586L86.7604 114.613C88.8347 113.496 89.7778 111.028 88.9766 108.813C88.2888 106.911 89.2332 104.805 91.1112 104.054L94.8634 102.554C97.1571 101.636 98.5796 99.3245 98.3657 96.8632C98.1728 94.6427 99.5977 92.6026 101.749 92.0191L105.055 91.1228C107.6 90.4322 109.497 88.3006 109.887 85.6918C110.257 83.2252 112.202 81.2929 114.67 80.9389L117.059 80.5964C119.861 80.1946 122.217 78.2887 123.194 75.6326C124.157 73.0161 126.639 71.2684 129.427 71.2449L130.567 71.2361C133.584 71.2107 136.365 69.5961 137.883 66.9886Z" stroke="#FC6A06"/>
</g>
<path d="M109.439 140.904C110.464 140.492 111.352 140.124 112.102 139.798C112.853 139.473 113.474 139.205 113.965 138.993C114.537 138.735 115.021 138.51 115.415 138.318C115.879 138.122 116.392 137.79 116.951 137.322C117.538 136.839 118.166 136.332 118.834 135.802C119.486 135.245 120.182 134.699 120.919 134.164C121.657 133.63 122.415 133.192 123.193 132.851C123.711 132.624 124.396 132.373 125.247 132.098C126.099 131.822 127.046 131.618 128.088 131.486C129.157 131.337 130.288 131.297 131.483 131.365C132.677 131.433 133.876 131.697 135.079 132.157C136.283 132.616 137.459 133.309 138.607 134.234C139.754 135.158 140.816 136.404 141.793 137.969C143.249 140.303 144.283 142.593 144.894 144.839C145.506 147.084 145.668 149.209 145.383 151.214C145.125 153.204 144.411 155.06 143.24 156.783C142.07 158.505 140.426 160.032 138.308 161.364C136.735 162.453 135.182 163.512 133.648 164.543C133.003 164.987 132.309 165.442 131.567 165.907C130.852 166.356 130.137 166.805 129.422 167.254C128.691 167.676 127.98 168.069 127.288 168.433C126.596 168.796 125.95 169.115 125.35 169.389C125.801 168.732 126.129 168.145 126.336 167.629C126.57 167.097 126.733 166.66 126.824 166.318C126.912 165.907 126.947 165.562 126.93 165.283C126.812 164.954 126.557 164.325 126.166 163.397C125.825 162.619 125.331 161.515 124.685 160.084C124.039 158.653 123.138 156.719 121.984 154.282L120.563 151.26C119.666 149.395 118.876 147.903 118.193 146.782C117.536 145.646 116.994 144.768 116.564 144.15C116.046 143.439 115.617 142.947 115.278 142.673C114.998 142.438 114.592 142.204 114.06 141.97C113.602 141.801 112.996 141.628 112.244 141.449C111.502 141.228 110.567 141.046 109.439 140.904ZM126.631 150.894C128.076 153.271 129.268 155.055 130.208 156.244C131.159 157.391 131.936 158.205 132.539 158.687C133.243 159.219 133.81 159.451 134.24 159.383C134.754 159.086 135.211 158.533 135.611 157.725C135.994 156.89 136.232 155.833 136.323 154.553C136.441 153.258 136.358 151.772 136.075 150.095C135.819 148.402 135.282 146.565 134.462 144.585C133.643 142.604 132.638 141.019 131.446 139.831C130.255 138.643 129.074 137.755 127.905 137.167C126.72 136.552 125.662 136.189 124.731 136.077C123.784 135.938 123.149 135.962 122.824 136.15C122.445 136.369 122.17 136.672 121.997 137.061C121.809 137.422 121.647 138.111 121.512 139.127C121.46 139.662 121.53 140.344 121.719 141.172C121.889 141.904 122.204 142.823 122.662 143.93C123.121 145.036 123.846 146.386 124.838 147.978L126.631 150.894ZM136.031 124.624C136.975 124.259 137.83 123.928 138.597 123.629C139.347 123.304 139.995 123.02 140.54 122.777C141.183 122.515 141.749 122.278 142.241 122.066C142.856 121.819 143.653 121.232 144.634 120.305C145.598 119.351 146.687 118.361 147.899 117.336C149.123 116.268 150.444 115.307 151.863 114.451C153.266 113.569 154.727 113.068 156.245 112.948C157.764 112.829 159.067 112.835 160.153 112.965C161.239 113.096 162.186 113.361 162.994 113.76C163.813 114.117 164.521 114.592 165.117 115.187C165.712 115.781 166.266 116.489 166.778 117.313C167.47 118.573 167.868 119.949 167.971 121.441C168.009 122.069 167.981 122.77 167.888 123.546C167.806 124.279 167.622 125.053 167.335 125.869C167.048 126.684 166.637 127.535 166.102 128.421C165.595 129.291 164.921 130.186 164.08 131.105C165.253 130.824 166.282 130.699 167.165 130.73C168.076 130.745 168.836 130.811 169.446 130.929C170.183 131.08 170.79 131.289 171.268 131.554C171.894 131.95 172.378 132.32 172.721 132.664C173.064 133.007 173.358 133.36 173.604 133.724C173.861 134.044 174.14 134.37 174.44 134.702C174.74 135.034 175.166 135.366 175.718 135.696C176.153 135.95 176.637 136.194 177.169 136.428C177.643 136.624 178.173 136.823 178.759 137.025C179.372 137.212 180.059 137.339 180.819 137.405C180.077 137.87 179.381 138.29 178.732 138.665C178.109 139.025 177.568 139.337 177.108 139.603C176.567 139.916 176.045 140.199 175.542 140.453C175.04 140.708 174.423 141.046 173.692 141.468C173.07 141.827 172.272 142.288 171.297 142.851C170.35 143.398 169.208 144.076 167.871 144.884C168.2 144.08 168.422 143.339 168.535 142.66C168.648 141.981 168.703 141.39 168.701 140.886C168.694 140.312 168.628 139.791 168.502 139.323C168.215 138.514 167.791 137.749 167.23 137.026C166.758 136.397 166.111 135.778 165.291 135.169C164.454 134.533 163.401 134.023 162.132 133.637C161.426 134.226 160.825 134.717 160.331 135.111C159.848 135.462 159.433 135.774 159.085 136.047C158.683 136.351 158.355 136.595 158.1 136.778C157.872 136.946 157.617 137.129 157.335 137.328C157.107 137.496 156.86 137.693 156.594 137.919C156.339 138.102 156.105 138.291 155.893 138.486C156.511 139.681 157.097 140.696 157.651 141.53C158.19 142.338 158.664 143.002 159.073 143.524C159.572 144.138 160.03 144.649 160.447 145.058C160.863 145.467 161.326 145.831 161.835 146.151C162.244 146.42 162.722 146.685 163.269 146.946C163.802 147.18 164.335 147.323 164.87 147.375C164.167 147.781 163.49 148.172 162.841 148.547C162.218 148.907 161.642 149.221 161.113 149.491C160.517 149.835 159.941 150.15 159.384 150.435C158.827 150.721 158.211 151.059 157.534 151.45C156.966 151.778 156.289 152.169 155.505 152.622C154.747 153.06 153.93 153.55 153.052 154.093C153.334 152.956 153.529 152.013 153.638 151.264C153.747 150.516 153.808 149.903 153.821 149.426C153.846 148.907 153.807 148.496 153.705 148.194C153.509 147.73 153.104 146.935 152.491 145.81C151.888 144.642 151.179 143.32 150.362 141.843C149.545 140.366 148.675 138.83 147.753 137.233C146.831 135.636 145.958 134.156 145.133 132.791C144.294 131.4 143.571 130.211 142.966 129.226C142.36 128.24 141.966 127.62 141.783 127.365C141.42 126.925 140.963 126.539 140.411 126.208C139.944 125.9 139.352 125.593 138.633 125.286C137.915 124.98 137.047 124.759 136.031 124.624ZM159.627 130.05C159.804 129.731 159.94 129.436 160.036 129.164C160.131 128.892 160.145 128.541 160.077 128.112C159.994 127.655 159.797 127.064 159.488 126.341C159.205 125.602 158.796 124.612 158.259 123.37C157.695 122.144 157.059 121.23 156.351 120.628C155.67 120.011 154.988 119.612 154.304 119.429C153.633 119.203 152.993 119.158 152.385 119.292C151.789 119.384 151.301 119.539 150.922 119.758C150.164 120.196 149.553 120.856 149.088 121.738C148.623 122.62 148.428 123.563 148.502 124.566C148.57 124.996 148.785 125.648 149.145 126.523C149.47 127.273 149.979 128.278 150.671 129.539C151.363 130.799 152.349 132.413 153.629 134.38C154.752 133.948 155.697 133.493 156.466 133.012C157.22 132.505 157.828 132.027 158.291 131.579C158.862 131.069 159.308 130.559 159.627 130.05ZM171.937 106.754C173.337 106.054 174.512 105.465 175.464 104.988C176.426 104.468 177.227 104.042 177.865 103.709C178.584 103.33 179.179 102.986 179.651 102.678C180.122 102.369 180.746 101.919 181.522 101.326C182.179 100.838 183.042 100.177 184.112 99.343C185.193 98.4659 186.528 97.3705 188.115 96.0569C187.852 97.0388 187.693 97.8884 187.638 98.6057C187.595 99.2804 187.58 99.8483 187.594 100.31C187.627 100.868 187.689 101.319 187.78 101.663C187.882 101.965 188.327 102.61 189.115 103.599C189.902 104.588 190.875 105.74 192.032 107.057C193.174 108.346 194.405 109.728 195.726 111.203C197.031 112.65 198.281 114.003 199.477 115.261C200.657 116.492 201.68 117.543 202.544 118.415C203.42 119.245 203.981 119.715 204.225 119.826C204.959 120.16 205.435 120.391 205.653 120.517C205.855 120.617 206.13 120.657 206.479 120.636C206.619 120.627 206.841 120.607 207.148 120.574C207.427 120.558 207.789 120.529 208.234 120.488C208.707 120.432 209.29 120.347 209.983 120.236C208.959 120.899 208.076 121.464 207.334 121.928C206.576 122.366 205.962 122.739 205.49 123.047C204.938 123.403 204.466 123.711 204.076 123.973C203.67 124.207 203.199 124.515 202.662 124.898C202.206 125.233 201.601 125.655 200.848 126.162C200.121 126.654 199.259 127.224 198.262 127.872C198.585 127.18 198.822 126.592 198.975 126.107C199.139 125.579 199.254 125.152 199.318 124.826C199.378 124.43 199.386 124.101 199.343 123.837C199.256 123.563 199.086 123.174 198.831 122.671C198.608 122.223 198.28 121.654 197.847 120.966C197.398 120.251 196.783 119.343 196.003 118.242L185.96 125.504C185.955 126.12 185.987 126.644 186.055 127.074C186.107 127.476 186.176 127.815 186.263 128.09C186.354 128.435 186.467 128.694 186.604 128.868C186.783 129.053 187.026 129.255 187.333 129.475C187.625 129.667 188.002 129.882 188.464 130.121C188.938 130.316 189.573 130.509 190.368 130.699C189.676 131.063 188.978 131.448 188.275 131.854C187.571 132.261 186.929 132.649 186.35 133.02C185.662 133.454 184.987 133.879 184.326 134.297C183.666 134.715 182.918 135.201 182.083 135.755C181.384 136.231 180.57 136.791 179.643 137.435C178.673 138.067 177.651 138.766 176.577 139.531C177.093 138.8 177.501 138.131 177.8 137.525C178.084 136.892 178.303 136.333 178.455 135.847C178.647 135.304 178.792 134.805 178.89 134.351C178.924 133.971 178.943 133.13 178.948 131.828C178.938 130.498 178.894 128.954 178.817 127.194C178.766 125.419 178.687 123.534 178.581 121.538C178.502 119.527 178.396 117.657 178.264 115.929C178.117 114.174 177.957 112.678 177.784 111.443C177.612 110.207 177.44 109.44 177.268 109.143C177.01 108.822 176.649 108.508 176.182 108.2C175.774 107.93 175.226 107.669 174.539 107.417C173.879 107.148 173.011 106.928 171.937 106.754ZM193.781 115.52C193.071 114.667 192.453 113.941 191.927 113.342C191.386 112.717 190.941 112.198 190.595 111.784C190.174 111.306 189.819 110.879 189.53 110.504C189.23 110.172 188.854 109.74 188.402 109.207C187.997 108.756 187.494 108.198 186.894 107.534C186.306 106.827 185.591 105.995 184.749 105.038C184.988 109.014 185.167 112.104 185.286 114.309C185.416 116.471 185.519 118.054 185.593 119.058C185.664 120.244 185.72 120.933 185.76 121.127L193.781 115.52ZM208.589 83.1486C210.305 82.1212 211.906 81.6118 213.39 81.6205C214.902 81.6135 216.267 81.8533 217.487 82.3399C218.706 82.8265 219.771 83.4205 220.681 84.1217C221.576 84.7959 222.28 85.3275 222.793 85.7166C222.926 85.8207 223.135 85.934 223.423 86.0567C223.667 86.168 223.99 86.2886 224.39 86.4186C224.801 86.5058 225.303 86.5946 225.897 86.6849C225.073 87.1964 224.345 87.6533 223.711 88.0555C223.062 88.4306 222.515 88.7646 222.07 89.0573C221.572 89.3813 221.127 89.6741 220.737 89.9356C220.347 90.1971 219.87 90.5269 219.306 90.9248C218.796 91.2916 218.164 91.7286 217.41 92.236C216.657 92.7434 215.743 93.3794 214.669 94.1441C214.877 92.9416 214.99 91.9197 215.01 91.0785C215.04 90.1946 215.01 89.4544 214.918 88.8579C214.837 88.2187 214.701 87.7019 214.51 87.3074C214.345 86.8973 214.144 86.5804 213.906 86.3566C213.384 85.828 212.707 85.6238 211.874 85.7439C209.613 86.3281 208.159 87.7457 207.51 89.9969C206.873 92.2053 207.158 95.0724 208.364 98.5979C208.973 100.339 209.634 102.141 210.348 104.002C211.074 105.82 211.87 107.417 212.737 108.793C213.588 110.142 214.507 111.109 215.495 111.693C216.482 112.278 217.555 112.199 218.715 111.457C219.847 110.731 220.725 109.971 221.35 109.178C221.958 108.357 222.373 107.576 222.595 106.835C222.8 106.066 222.842 105.357 222.718 104.706C222.607 104.013 222.383 103.438 222.048 102.982C221.721 102.666 221.202 102.424 220.492 102.257C219.867 102.113 219.016 102.045 217.938 102.054C216.845 102.036 215.393 102.207 213.58 102.568C214.968 101.659 216.113 100.925 217.018 100.366C217.934 99.7649 218.647 99.281 219.157 98.9142C219.775 98.485 220.252 98.1553 220.588 97.925C220.897 97.7104 221.355 97.4098 221.962 97.0233C222.487 96.6836 223.17 96.2715 224.009 95.787C224.874 95.2868 225.949 94.6481 227.232 93.8708C227.027 94.6393 226.906 95.3046 226.87 95.8668C226.859 96.1614 226.847 96.4212 226.832 96.646C226.88 96.9792 227.16 97.5574 227.672 98.3806C228.078 99.0842 228.734 100.095 229.639 101.412C230.529 102.703 231.803 104.439 233.46 106.622L228.484 110.47L225.562 104.85C225.799 106.698 225.656 108.26 225.13 109.538C224.632 110.8 224.05 111.822 223.383 112.605C222.585 113.535 221.637 114.299 220.539 114.897C219.053 115.574 217.459 116.062 215.755 116.361C214.051 116.66 212.352 116.594 210.66 116.164C208.953 115.706 207.309 114.797 205.729 113.436C204.176 112.06 202.781 110.051 201.544 107.409C200.334 104.752 199.663 102.216 199.532 99.8017C199.412 97.3447 199.71 95.0797 200.425 93.0065C201.14 90.9334 202.211 89.0698 203.638 87.4159C205.076 85.7192 206.726 84.2968 208.589 83.1486Z" fill="black"/>
<defs>
<filter id="filter0_d_612_248" x="143.084" y="142.658" width="208.832" height="138.684" filterUnits="userSpaceOnUse" color-interpolation-filters="sRGB">
<feFlood flood-opacity="0" result="BackgroundImageFix"/>
<feColorMatrix in="SourceAlpha" type="matrix" values="0 0 0 0 0 0 0 0 0 0 0 0 0 0 0 0 0 0 127 0" result="hardAlpha"/>
<feOffset dy="4"/>
<feGaussianBlur stdDeviation="2"/>
<feComposite in2="hardAlpha" operator="out"/>
<feColorMatrix type="matrix" values="0 0 0 0 0.210889 0 0 0 0 0.732372 0 0 0 0 0.142014 0 0 0 1 0"/>
<feBlend mode="normal" in2="BackgroundImageFix" result="effect1_dropShadow_612_248"/>
<feBlend mode="normal" in="SourceGraphic" in2="effect1_dropShadow_612_248" result="shape"/>
</filter>
<filter id="filter1_n_612_248" x="4.38135" y="3.66208" width="200.795" height="130.662" filterUnits="userSpaceOnUse" color-interpolation-filters="sRGB">
<feFlood flood-opacity="0" result="BackgroundImageFix"/>
<feBlend mode="normal" in="SourceGraphic" in2="BackgroundImageFix" result="shape"/>
<feTurbulence type="fractalNoise" baseFrequency="2 2" stitchTiles="stitch" numOctaves="3" result="noise" seed="8664" />
<feColorMatrix in="noise" type="luminanceToAlpha" result="alphaNoise" />
<feComponentTransfer in="alphaNoise" result="coloredNoise1">
<feFuncA type="discrete" tableValues="1 1 1 1 1 1 1 1 1 1 1 1 1 1 1 1 1 1 1 1 1 1 1 1 1 1 1 1 1 1 1 1 1 1 1 1 1 1 1 1 1 1 1 1 1 1 1 1 1 1 1 0 0 0 0 0 0 0 0 0 0 0 0 0 0 0 0 0 0 0 0 0 0 0 0 0 0 0 0 0 0 0 0 0 0 0 0 0 0 0 0 0 0 0 0 0 0 0 0 0 "/>
</feComponentTransfer>
<feComposite operator="in" in2="shape" in="coloredNoise1" result="noise1Clipped" />
<feFlood flood-color="#FF6905" result="color1Flood" />
<feComposite operator="in" in2="noise1Clipped" in="color1Flood" result="color1" />
<feMerge result="effect1_noise_612_248">
<feMergeNode in="shape" />
<feMergeNode in="color1" />
</feMerge>
</filter>
<filter id="filter2_d_612_248" x="74.2227" y="48.6845" width="198.242" height="155.369" filterUnits="userSpaceOnUse" color-interpolation-filters="sRGB">
<feFlood flood-opacity="0" result="BackgroundImageFix"/>
<feColorMatrix in="SourceAlpha" type="matrix" values="0 0 0 0 0 0 0 0 0 0 0 0 0 0 0 0 0 0 127 0" result="hardAlpha"/>
<feOffset dx="4" dy="4"/>
<feGaussianBlur stdDeviation="2"/>
<feComposite in2="hardAlpha" operator="out"/>
<feColorMatrix type="matrix" values="0 0 0 0 1 0 0 0 0 0.4125 0 0 0 0 0.0208332 0 0 0 1 0"/>
<feBlend mode="normal" in2="BackgroundImageFix" result="effect1_dropShadow_612_248"/>
<feBlend mode="normal" in="SourceGraphic" in2="effect1_dropShadow_612_248" result="shape"/>
</filter>
</defs>
</svg>
