<svg width="660" height="532" viewBox="0 0 660 532" fill="none" xmlns="http://www.w3.org/2000/svg">
<path d="M358 45.6583C361.717 42.3599 365.615 39.1788 369.588 36.2037L371.046 38.1498C367.128 41.0858 363.281 44.2239 359.615 47.4778L358 45.6583ZM381.919 27.7423C386.126 25.1055 390.497 22.6127 394.909 20.3325L396.026 22.4939C391.673 24.7429 387.361 27.2019 383.211 29.8029L381.919 27.7423ZM408.468 14.0253C413.045 12.1219 417.765 10.3833 422.498 8.85604L423.245 11.1713C418.575 12.6773 413.918 14.3935 409.402 16.2711L408.468 14.0253ZM437.461 7.21353L436.904 4.84628C441.745 3.70752 446.684 2.75628 451.582 2.0185L451.944 4.4242C447.111 5.15177 442.238 6.09019 437.461 7.21353ZM466.607 2.83083L466.445 0.403905C471.399 0.0721151 476.427 -0.0562812 481.39 0.0224888L481.352 2.45508C476.455 2.37678 471.494 2.50357 466.607 2.83083ZM496.078 3.30298L496.318 0.882856C501.26 1.37392 506.245 2.0792 511.133 2.97899L510.692 5.37135C505.87 4.48328 500.953 3.78748 496.078 3.30298ZM587.241 323.801C591.126 320.825 594.938 317.647 598.57 314.354L600.204 316.157C596.522 319.495 592.658 322.716 588.721 325.732L587.241 323.801ZM525.085 8.64079L525.721 6.29322C530.511 7.59207 535.31 9.1079 539.984 10.7985L539.156 13.0854C534.545 11.4178 529.81 9.92211 525.085 8.64079ZM609.082 304.004C612.426 300.427 615.664 296.666 618.706 292.824L620.613 294.334C617.53 298.228 614.248 302.04 610.858 305.665L609.082 304.004ZM552.814 18.6715L553.827 16.4592C558.343 18.5265 562.828 20.8057 567.158 23.2349L565.968 25.3559C561.696 22.9596 557.27 20.7103 552.814 18.6715ZM627.381 280.892C630.099 276.814 632.68 272.573 635.052 268.288L637.18 269.467C634.775 273.809 632.16 278.107 629.406 282.24L627.381 280.892ZM578.53 33.094L579.889 31.0774C584.006 33.8519 588.059 36.8319 591.935 39.9347L590.415 41.8335C586.59 38.7721 582.592 35.8318 578.53 33.094ZM641.666 255.099C643.681 250.632 645.536 246.027 647.177 241.411L649.47 242.226C647.805 246.905 645.926 251.572 643.884 256.099L641.666 255.099ZM601.54 51.5156L603.211 49.7481C606.821 53.1606 610.33 56.7627 613.641 60.4549L611.83 62.0785C608.564 58.436 605.102 54.8825 601.54 51.5156ZM651.546 227.317C652.803 222.574 653.877 217.727 654.736 212.911L657.132 213.338C656.26 218.22 655.171 223.133 653.897 227.941L651.546 227.317ZM621.211 73.4528L623.149 71.9838C626.146 75.9406 629.013 80.0699 631.67 84.2576L629.616 85.5604C626.995 81.4295 624.167 77.3557 621.211 73.4528ZM656.726 198.289C657.184 193.413 657.442 188.455 657.494 183.553L659.926 183.579C659.874 188.547 659.612 193.573 659.147 198.516L656.726 198.289ZM636.993 98.3322L639.148 97.2045C641.449 101.597 643.595 106.146 645.529 110.725L643.288 111.671C641.38 107.154 639.263 102.667 636.993 98.3322ZM657.038 168.805C656.684 163.929 656.122 158.997 655.364 154.148L657.768 153.773C658.535 158.688 659.106 163.686 659.464 168.629L657.038 168.805ZM648.462 125.483L650.773 124.724C652.321 129.433 653.699 134.287 654.86 139.106L652.495 139.676C651.349 134.916 649.989 130.131 648.462 125.483Z" fill="#F0F0F0"/>
<path d="M50.7173 452.898V69.5736C50.7191 67.9057 51.3825 66.3067 52.5618 65.1273C53.7412 63.9479 55.3403 63.2845 57.0081 63.2827H606.839C608.507 63.2845 610.106 63.9479 611.285 65.1273C612.464 66.3067 613.128 67.9057 613.13 69.5736V452.898C613.128 454.566 612.464 456.165 611.285 457.344C610.106 458.523 608.507 459.187 606.839 459.189H57.0081C55.3403 459.187 53.7412 458.523 52.5618 457.344C51.3825 456.165 50.7191 454.566 50.7173 452.898Z" fill="white"/>
<path d="M57.0082 463.189C54.2816 463.182 51.6685 462.097 49.7401 460.169C47.8117 458.242 46.7249 455.629 46.7173 452.902V69.5737C46.7238 66.8472 47.8094 64.2341 49.737 62.3057C51.6645 60.3773 54.2771 59.2904 57.0036 59.2827H606.839C609.565 59.2893 612.178 60.375 614.107 62.3026C616.035 64.2302 617.122 66.8428 617.13 69.5693V452.898C617.123 455.624 616.037 458.238 614.11 460.166C612.182 462.094 609.57 463.181 606.843 463.189H57.0082ZM54.7173 452.894C54.719 453.502 54.9613 454.085 55.3914 454.515C55.8215 454.945 56.4044 455.187 57.0127 455.189H606.839C607.446 455.186 608.028 454.944 608.457 454.513C608.887 454.083 609.128 453.501 609.13 452.894V69.5737C609.127 68.9661 608.884 68.3842 608.454 67.955C608.024 67.5258 607.442 67.2841 606.834 67.2827H57.0082C56.4006 67.2853 55.8187 67.5281 55.3896 67.9582C54.9604 68.3882 54.7187 68.9706 54.7173 69.5781V452.894Z" fill="#E4E4E4"/>
<path d="M516.531 152.819C517.839 152.84 519.087 153.375 520.005 154.308C520.922 155.241 521.437 156.497 521.437 157.806C521.437 159.115 520.922 160.371 520.005 161.304C519.087 162.237 517.839 162.772 516.531 162.793H391.48C390.825 162.805 390.173 162.687 389.564 162.447C388.954 162.206 388.397 161.848 387.926 161.392C387.455 160.937 387.078 160.393 386.817 159.792C386.556 159.19 386.416 158.543 386.405 157.888C386.395 157.233 386.513 156.581 386.754 155.972C386.995 155.362 387.354 154.806 387.81 154.335C388.266 153.865 388.811 153.488 389.412 153.228C390.014 152.968 390.661 152.829 391.316 152.819C391.371 152.818 391.425 152.818 391.48 152.819H516.531Z" fill="#E4E4E4"/>
<path d="M516.531 188.074C517.839 188.095 519.087 188.63 520.005 189.563C520.923 190.496 521.437 191.753 521.437 193.061C521.437 194.37 520.923 195.626 520.005 196.559C519.087 197.492 517.839 198.027 516.531 198.049H391.48C390.825 198.06 390.175 197.941 389.565 197.7C388.956 197.46 388.4 197.101 387.93 196.646C387.459 196.19 387.082 195.647 386.822 195.046C386.561 194.445 386.422 193.798 386.411 193.143C386.4 192.488 386.518 191.838 386.759 191.228C387 190.619 387.358 190.063 387.814 189.593C388.269 189.122 388.813 188.745 389.414 188.485C390.015 188.224 390.661 188.085 391.316 188.074C391.371 188.073 391.426 188.073 391.48 188.074H516.531Z" fill="#E4E4E4"/>
<path d="M516.531 223.329C517.839 223.351 519.087 223.886 520.005 224.819C520.922 225.752 521.437 227.008 521.437 228.317C521.437 229.625 520.922 230.882 520.005 231.815C519.087 232.748 517.839 233.283 516.531 233.304H391.48C390.825 233.316 390.173 233.198 389.564 232.957C388.954 232.717 388.397 232.359 387.926 231.903C387.455 231.448 387.078 230.904 386.817 230.302C386.556 229.701 386.416 229.054 386.405 228.399C386.395 227.743 386.513 227.092 386.754 226.483C386.995 225.873 387.354 225.317 387.81 224.846C388.266 224.375 388.811 223.999 389.412 223.739C390.014 223.479 390.661 223.339 391.316 223.329C391.371 223.328 391.425 223.328 391.48 223.329H516.531Z" fill="#E4E4E4"/>
<path d="M436.847 277.831C436.847 274.453 437.849 271.152 439.725 268.344C441.601 265.535 444.268 263.347 447.389 262.054C450.509 260.762 453.943 260.424 457.255 261.083C460.568 261.741 463.61 263.368 465.999 265.756C468.387 268.144 470.013 271.187 470.672 274.499C471.331 277.812 470.993 281.245 469.7 284.366C468.408 287.486 466.219 290.153 463.411 292.029C460.603 293.906 457.301 294.907 453.924 294.907C451.681 294.907 449.461 294.466 447.389 293.608C445.317 292.749 443.434 291.491 441.849 289.906C440.263 288.32 439.005 286.438 438.147 284.366C437.289 282.294 436.847 280.073 436.847 277.831Z" fill="#36BB24"/>
<path d="M447.186 276.146H452.239V271.093C452.24 270.647 452.417 270.22 452.732 269.904C453.047 269.589 453.475 269.411 453.921 269.411C454.367 269.41 454.795 269.586 455.111 269.9C455.427 270.214 455.606 270.641 455.608 271.087V276.146H460.662C461.108 276.146 461.537 276.324 461.853 276.64C462.169 276.956 462.346 277.384 462.346 277.831C462.346 278.278 462.169 278.706 461.853 279.022C461.537 279.338 461.108 279.515 460.662 279.515H455.608V284.569C455.607 285.015 455.428 285.442 455.113 285.756C454.797 286.071 454.369 286.248 453.924 286.248C453.478 286.248 453.05 286.071 452.735 285.756C452.419 285.442 452.241 285.015 452.239 284.569V279.515H447.186C446.965 279.516 446.745 279.473 446.541 279.388C446.336 279.304 446.15 279.18 445.994 279.024C445.837 278.868 445.712 278.683 445.627 278.479C445.542 278.274 445.498 278.055 445.498 277.834C445.498 277.613 445.541 277.394 445.625 277.189C445.709 276.985 445.833 276.799 445.989 276.642C446.145 276.485 446.331 276.361 446.535 276.276C446.739 276.191 446.958 276.147 447.179 276.146H447.186Z" fill="white"/>
<path d="M276.841 198.175C276.851 206.151 275.429 214.065 272.642 221.539C271.376 224.962 269.824 228.272 268.001 231.434C262.14 241.66 253.683 250.158 243.485 256.068C233.287 261.977 221.71 265.089 209.923 265.089C198.137 265.089 186.559 261.977 176.361 256.068C166.163 250.158 157.707 241.66 151.846 231.434C151.253 230.406 150.69 229.362 150.158 228.303C145.61 219.279 143.163 209.343 143.003 199.239C142.842 189.135 144.972 179.126 149.232 169.963C153.492 160.8 159.772 152.721 167.601 146.331C175.429 139.941 184.603 135.407 194.434 133.069C204.265 130.731 214.497 130.65 224.364 132.831C234.231 135.013 243.476 139.4 251.405 145.664C259.334 151.929 265.742 159.907 270.147 169.002C274.552 178.096 276.841 188.07 276.841 198.175Z" fill="#E4E4E4"/>
<path d="M213.402 209.471C220.468 209.471 226.196 203.744 226.196 196.678C226.196 189.613 220.468 183.885 213.402 183.885C206.337 183.885 200.609 189.613 200.609 196.678C200.609 203.744 206.337 209.471 213.402 209.471Z" fill="#36BB24"/>
<path d="M150.158 228.303C155.795 222.211 163.33 212.54 170.398 219.528C173.944 222.824 179.495 230.992 184.809 225.652L226.303 184.159C227.084 183.387 228.011 182.78 229.03 182.372C230.05 181.965 231.14 181.765 232.238 181.785C233.335 181.804 234.418 182.043 235.422 182.487C236.426 182.931 237.331 183.571 238.084 184.37L272.642 221.539C271.376 224.962 269.824 228.272 268.001 231.434H151.846L150.158 228.303Z" fill="white"/>
<path d="M268.032 384.819C267.612 384.818 267.195 384.9 266.806 385.061C266.417 385.221 266.064 385.457 265.766 385.754C265.469 386.051 265.232 386.404 265.071 386.793C264.91 387.181 264.827 387.598 264.827 388.018C264.827 388.439 264.91 388.855 265.071 389.244C265.232 389.633 265.469 389.986 265.766 390.283C266.064 390.58 266.417 390.815 266.806 390.976C267.195 391.136 267.612 391.219 268.032 391.218H301.606C302.027 391.219 302.443 391.136 302.832 390.976C303.221 390.815 303.574 390.58 303.872 390.283C304.17 389.986 304.406 389.633 304.567 389.244C304.728 388.855 304.811 388.439 304.811 388.018C304.811 387.598 304.728 387.181 304.567 386.793C304.406 386.404 304.17 386.051 303.872 385.754C303.574 385.457 303.221 385.221 302.832 385.061C302.443 384.9 302.027 384.818 301.606 384.819H268.032Z" fill="#36BB24"/>
<path d="M116.772 337.826C115.924 337.826 115.11 338.163 114.51 338.763C113.91 339.363 113.573 340.177 113.573 341.025C113.573 341.874 113.91 342.688 114.51 343.288C115.11 343.888 115.924 344.225 116.772 344.225H303.075C303.923 344.225 304.737 343.888 305.337 343.288C305.937 342.688 306.274 341.874 306.274 341.025C306.274 340.177 305.937 339.363 305.337 338.763C304.737 338.163 303.923 337.826 303.075 337.826H116.772Z" fill="#E5E5E5"/>
<path d="M116.772 361.322C115.924 361.322 115.11 361.659 114.51 362.259C113.91 362.859 113.573 363.673 113.573 364.522C113.573 365.37 113.91 366.184 114.51 366.784C115.11 367.384 115.924 367.721 116.772 367.721H303.075C303.923 367.721 304.737 367.384 305.337 366.784C305.937 366.184 306.274 365.37 306.274 364.522C306.274 363.673 305.937 362.859 305.337 362.259C304.737 361.659 303.923 361.322 303.075 361.322H116.772Z" fill="#E5E5E5"/>
<path d="M512.032 384.819C511.612 384.818 511.195 384.9 510.806 385.061C510.417 385.221 510.064 385.457 509.766 385.754C509.469 386.051 509.232 386.404 509.071 386.793C508.91 387.181 508.827 387.598 508.827 388.018C508.827 388.439 508.91 388.855 509.071 389.244C509.232 389.633 509.469 389.986 509.766 390.283C510.064 390.58 510.417 390.815 510.806 390.976C511.195 391.136 511.612 391.219 512.032 391.218H545.606C546.027 391.219 546.443 391.136 546.832 390.976C547.221 390.815 547.574 390.58 547.872 390.283C548.17 389.986 548.406 389.633 548.567 389.244C548.728 388.855 548.811 388.439 548.811 388.018C548.811 387.598 548.728 387.181 548.567 386.793C548.406 386.404 548.17 386.051 547.872 385.754C547.574 385.457 547.221 385.221 546.832 385.061C546.443 384.9 546.027 384.818 545.606 384.819H512.032Z" fill="#36BB24"/>
<path d="M360.772 337.826C359.924 337.826 359.11 338.163 358.51 338.763C357.91 339.363 357.573 340.177 357.573 341.025C357.573 341.874 357.91 342.688 358.51 343.288C359.11 343.888 359.924 344.225 360.772 344.225H547.075C547.923 344.225 548.737 343.888 549.337 343.288C549.937 342.688 550.274 341.874 550.274 341.025C550.274 340.177 549.937 339.363 549.337 338.763C548.737 338.163 547.923 337.826 547.075 337.826H360.772Z" fill="#E5E5E5"/>
<path d="M360.772 361.322C359.924 361.322 359.11 361.659 358.51 362.259C357.91 362.859 357.573 363.673 357.573 364.522C357.573 365.37 357.91 366.184 358.51 366.784C359.11 367.384 359.924 367.721 360.772 367.721H547.075C547.923 367.721 548.737 367.384 549.337 366.784C549.937 366.184 550.274 365.37 550.274 364.522C550.274 363.673 549.937 362.859 549.337 362.259C548.737 361.659 547.923 361.322 547.075 361.322H360.772Z" fill="#E5E5E5"/>
<path d="M331.904 451.996C329.123 456.114 326.136 460.164 323.027 464.032L321.131 462.509C324.198 458.692 327.144 454.697 329.888 450.634L331.904 451.996ZM313.184 475.291C309.763 478.89 306.149 482.39 302.441 485.695L300.822 483.879C304.48 480.619 308.046 477.166 311.42 473.616L313.184 475.291ZM290.873 495.172C286.912 498.153 282.772 501.009 278.567 503.664L277.268 501.607C281.418 498.988 285.503 496.169 289.411 493.229L290.873 495.172ZM264.481 508.971L265.609 511.126C261.202 513.431 256.654 515.579 252.092 517.511L251.144 515.27C255.646 513.365 260.133 511.246 264.481 508.971ZM237.336 520.456L238.097 522.766C233.38 524.318 228.541 525.691 223.714 526.847L223.147 524.482C227.91 523.341 232.684 521.986 237.336 520.456ZM208.672 527.318L209.04 529.721C204.131 530.473 199.127 531.028 194.169 531.371L194.002 528.944C198.893 528.606 203.829 528.059 208.672 527.318ZM40.765 239.503C37.7408 243.35 34.8381 247.376 32.1373 251.468L30.1071 250.127C32.845 245.98 35.7871 241.899 38.8525 238L40.765 239.503ZM179.248 529.351L179.215 531.783C174.252 531.715 169.228 531.438 164.28 530.961L164.514 528.541C169.395 529.011 174.352 529.284 179.248 529.351ZM24.5257 264.104C22.1744 268.4 19.9721 272.848 17.9803 277.324L15.7576 276.335C17.7768 271.798 20.0091 267.29 22.3922 262.936L24.5257 264.104ZM149.896 526.522L149.465 528.916C144.577 528.035 139.667 526.941 134.869 525.664L135.494 523.314C140.228 524.574 145.073 525.653 149.896 526.522ZM12.5399 291.037C10.9204 295.663 9.47361 300.411 8.23932 305.151L5.88532 304.538C7.1366 299.734 8.60279 294.921 10.2436 290.234L12.5399 291.037ZM121.404 518.938L120.588 521.229C115.912 519.564 111.246 517.684 106.721 515.641L107.721 513.424C112.187 515.44 116.79 517.295 121.404 518.938ZM5.10834 319.57C4.26581 324.397 3.61334 329.319 3.1695 334.197L0.746682 333.977C1.19699 329.032 1.85788 324.045 2.71176 319.152L5.10834 319.57ZM94.5397 506.808L93.3604 508.935C89.016 506.526 84.7223 503.909 80.5981 501.155L81.9492 499.132C86.0176 501.849 90.2537 504.432 94.5397 506.808ZM2.43865 348.934C2.39822 353.841 2.56213 358.803 2.92593 363.682L0.499718 363.863C0.131518 358.917 -0.0343969 353.888 0.00591311 348.915L2.43865 348.934ZM70.037 490.444L68.524 492.349C64.6384 489.26 60.8357 485.972 57.222 482.576L58.8883 480.803C62.4527 484.154 66.2038 487.398 70.037 490.444ZM4.63053 378.34C5.39789 383.177 6.37863 388.044 7.54581 392.805L5.1836 393.384C4.00043 388.558 3.00602 383.625 2.22812 378.721L4.63053 378.34ZM48.5699 470.264L46.7626 471.892C43.4433 468.208 40.2342 464.334 37.2239 460.38L39.1595 458.906C42.1295 462.808 45.2952 466.629 48.5699 470.264ZM11.6509 406.978C13.2041 411.613 14.974 416.25 16.9121 420.76L14.6769 421.72C12.7132 417.15 10.9186 412.449 9.34468 407.751L11.6509 406.978ZM30.7171 446.812L28.6673 448.122C25.998 443.944 23.458 439.585 21.1359 435.205L23.2853 434.065C25.5775 438.391 28.0833 442.689 30.7171 446.812Z" fill="#F0F0F0"/>
</svg>
