<svg width="381" height="282" viewBox="0 0 381 282" fill="none" xmlns="http://www.w3.org/2000/svg">
<path d="M31.5126 6.00244H110.696" stroke="#090814" stroke-width="2" stroke-miterlimit="10"/>
<path d="M31.5126 36.0146H198.079" stroke="#090814" stroke-width="2" stroke-miterlimit="10"/>
<path d="M31.5126 22.5088H270.108" stroke="#090814" stroke-width="2" stroke-miterlimit="10"/>
<path d="M13.5054 27.0108C20.9642 27.0108 27.0108 20.9642 27.0108 13.5054C27.0108 6.04657 20.9642 0 13.5054 0C6.04657 0 0 6.04657 0 13.5054C0 20.9642 6.04657 27.0108 13.5054 27.0108Z" fill="#36BB24"/>
<path d="M368.849 244.598H42.3154C35.9448 244.598 30.7623 239.415 30.7623 233.044V61.8235C30.7623 55.4532 35.9448 50.27 42.3154 50.27H368.849C375.22 50.27 380.402 55.4532 380.402 61.8235V233.044C380.402 239.415 375.22 244.598 368.849 244.598Z" fill="#D9D9D9"/>
<path d="M193.785 251.365L193.702 251.281L193.618 251.365C189.555 247.305 182.97 247.31 178.91 251.373C174.85 255.438 174.768 262.105 178.831 266.165L193.712 281.03L208.582 266.146C212.642 262.081 212.557 255.415 208.495 251.355C204.432 247.295 197.847 247.3 193.787 251.363L193.785 251.365Z" fill="#36BB24"/>
</svg>
