<svg width="801" height="531" viewBox="0 0 801 531" fill="none" xmlns="http://www.w3.org/2000/svg">
<path d="M799.679 41.7228H1.159C0.851611 41.7228 0.556802 41.6007 0.339447 41.3833C0.122092 41.166 0 40.8712 0 40.5638C0 40.2564 0.122092 39.9616 0.339447 39.7442C0.556802 39.5269 0.851611 39.4048 1.159 39.4048H799.679C799.986 39.4048 800.281 39.5269 800.499 39.7442C800.716 39.9616 800.838 40.2564 800.838 40.5638C800.838 40.8712 800.716 41.166 800.499 41.3833C800.281 41.6007 799.986 41.7228 799.679 41.7228Z" fill="#CACACA"/>
<path d="M27.2451 25.498C34.2862 25.498 39.9941 19.7901 39.9941 12.749C39.9941 5.70792 34.2862 0 27.2451 0C20.204 0 14.4961 5.70792 14.4961 12.749C14.4961 19.7901 20.204 25.498 27.2451 25.498Z" fill="#3F3D56"/>
<path d="M71.2851 25.498C78.3262 25.498 84.0341 19.7901 84.0341 12.749C84.0341 5.70792 78.3262 0 71.2851 0C64.2441 0 58.5361 5.70792 58.5361 12.749C58.5361 19.7901 64.2441 25.498 71.2851 25.498Z" fill="#3F3D56"/>
<path d="M115.326 25.498C122.367 25.498 128.075 19.7901 128.075 12.749C128.075 5.70792 122.367 0 115.326 0C108.285 0 102.577 5.70792 102.577 12.749C102.577 19.7901 108.285 25.498 115.326 25.498Z" fill="#3F3D56"/>
<path d="M773.292 7.79811H741.999C741.384 7.79811 740.795 7.5539 740.36 7.11919C739.925 6.68448 739.681 6.09489 739.681 5.48012C739.681 4.86535 739.925 4.27574 740.36 3.84103C740.795 3.40632 741.384 3.16211 741.999 3.16211H773.291C773.906 3.16211 774.496 3.40632 774.93 3.84103C775.365 4.27574 775.609 4.86535 775.609 5.48012C775.609 6.09489 775.365 6.68448 774.93 7.11919C774.496 7.5539 773.907 7.79811 773.292 7.79811Z" fill="#3F3D56"/>
<path d="M773.292 16.49H741.999C741.384 16.49 740.795 16.2458 740.36 15.8111C739.925 15.3764 739.681 14.7868 739.681 14.172C739.681 13.5572 739.925 12.9676 740.36 12.5329C740.795 12.0982 741.384 11.854 741.999 11.854H773.291C773.906 11.854 774.496 12.0982 774.93 12.5329C775.365 12.9676 775.609 13.5572 775.609 14.172C775.609 14.7868 775.365 15.3764 774.93 15.8111C774.496 16.2458 773.907 16.49 773.292 16.49Z" fill="#3F3D56"/>
<path d="M773.292 25.1819H741.999C741.384 25.1819 740.795 24.9377 740.36 24.503C739.925 24.0683 739.681 23.4787 739.681 22.8639C739.681 22.2491 739.925 21.6595 740.36 21.2248C740.795 20.7901 741.384 20.5459 741.999 20.5459H773.291C773.906 20.5459 774.496 20.7901 774.93 21.2248C775.365 21.6595 775.609 22.2491 775.609 22.8639C775.609 23.4787 775.365 24.0683 774.93 24.503C774.496 24.9377 773.907 25.1819 773.292 25.1819Z" fill="#3F3D56"/>
<path d="M755.831 94.1348H24.0559V481.84H755.831V94.1348Z" fill="#F0F0F0"/>
<path d="M755.831 166.702V162.902H613.383V94.1318H609.583V162.902H467.133V94.1318H463.333V162.902H320.883V94.1318H317.083V162.902H174.633V94.1318H170.833V162.902H24.0559V166.702H170.831V242.675H24.0559V246.475H170.831V322.448H24.0559V326.248H170.831V402.207H24.0559V406.007H170.831V481.828H174.631V406.019H317.081V481.84H320.881V406.019H463.331V481.84H467.131V406.019H609.581V481.84H613.381V406.019H755.829V402.219H613.383V326.257H755.831V322.457H613.383V246.482H755.831V242.682H613.383V166.702H755.831ZM317.081 402.212H174.633V326.257H317.081V402.212ZM317.081 322.451H174.633V246.482H317.081V322.451ZM317.081 242.676H174.633V166.702H317.081V242.676ZM463.331 402.213H320.883V326.257H463.331V402.213ZM463.331 322.452H320.883V246.482H463.331V322.452ZM463.331 242.677H320.883V166.702H463.331V242.677ZM609.581 402.214H467.133V326.257H609.581V402.214ZM609.581 322.453H467.133V246.482H609.581V322.453ZM609.581 242.678H467.133V166.707H609.581V242.678Z" fill="white"/>
<path d="M251.927 185.183H202.971V232.578H251.927V185.183Z" fill="#CACACA"/>
<path d="M702.65 338.65H653.694V386.045H702.65V338.65Z" fill="#CACACA"/>
<path d="M267.135 417.457H218.179V464.852H267.135V417.457Z" fill="#CACACA"/>
<path d="M281.604 176.389H232.648V223.784H281.604V176.389Z" fill="#36BB24"/>
<path d="M599.598 273.17H550.642V320.565H599.598V273.17Z" fill="#36BB24"/>
<path d="M440.601 358.89H391.645V406.285H440.601V358.89Z" fill="#36BB24"/>
<path d="M545.662 530.079H291.22C290.851 530.079 290.552 529.46 290.552 528.696C290.552 527.932 290.852 527.313 291.22 527.313H545.662C546.031 527.313 546.33 527.932 546.33 528.696C546.33 529.46 546.029 530.079 545.662 530.079Z" fill="#E6E6E6"/>
</svg>
