<svg width="344" height="186" viewBox="0 0 344 186" fill="none" xmlns="http://www.w3.org/2000/svg">
<path d="M328.586 185.801H14.8743C10.9307 185.797 7.14998 184.257 4.36149 181.52C1.57299 178.783 0.00445699 175.073 0 171.202V14.5986C0.00445461 10.7282 1.57299 7.0175 4.36149 4.28067C7.14998 1.54384 10.9307 0.00437207 14.8743 0H328.586C332.529 0.00436973 336.31 1.54382 339.098 4.28065C341.887 7.01748 343.456 10.7282 343.46 14.5986V171.202C343.456 175.073 341.887 178.783 339.098 181.52C336.31 184.257 332.529 185.797 328.586 185.801Z" fill="#E6E6E6"/>
<path d="M324.98 175.184H18.4801C16.4486 175.181 14.5009 174.388 13.0644 172.979C11.6279 171.569 10.8199 169.657 10.8176 167.663V18.1377C10.8199 16.1438 11.6279 14.2322 13.0644 12.8224C14.5009 11.4125 16.4486 10.6194 18.4801 10.6172H324.98C327.011 10.6194 328.959 11.4125 330.396 12.8224C331.832 14.2322 332.64 16.1438 332.642 18.1377V167.663C332.64 169.657 331.832 171.569 330.396 172.979C328.959 174.388 327.011 175.181 324.98 175.184Z" fill="white"/>
<path d="M291.626 153.507H51.8346C49.9219 153.507 48.0875 152.761 46.7351 151.434C45.3826 150.107 44.6228 148.306 44.6228 146.429C44.6228 144.552 45.3826 142.751 46.7351 141.424C48.0875 140.097 49.9219 139.351 51.8346 139.351H291.626C293.538 139.351 295.373 140.097 296.725 141.424C298.077 142.751 298.837 144.552 298.837 146.429C298.837 148.306 298.077 150.107 296.725 151.434C295.373 152.761 293.538 153.507 291.626 153.507Z" fill="#E6E6E6"/>
<path d="M291.626 123.425H51.8346C49.9219 123.425 48.0875 122.679 46.7351 121.352C45.3826 120.024 44.6228 118.224 44.6228 116.347C44.6228 114.469 45.3826 112.669 46.7351 111.342C48.0875 110.014 49.9219 109.269 51.8346 109.269H291.626C293.538 109.269 295.373 110.014 296.725 111.342C298.077 112.669 298.837 114.469 298.837 116.347C298.837 118.224 298.077 120.024 296.725 121.352C295.373 122.679 293.538 123.425 291.626 123.425Z" fill="#E6E6E6"/>
<path d="M104.12 88.5893H51.8344C49.8028 88.5871 47.8552 87.794 46.4187 86.3842C44.9822 84.9743 44.1741 83.0627 44.1719 81.0688V43.6831C44.1741 41.6892 44.9822 39.7777 46.4187 38.3678C47.8552 36.9579 49.8028 36.1648 51.8344 36.1626H104.12C106.151 36.1648 108.099 36.9579 109.535 38.3678C110.972 39.7777 111.78 41.6892 111.782 43.6831V81.0688C111.78 83.0627 110.972 84.9743 109.535 86.3842C108.099 87.794 106.151 88.5871 104.12 88.5893Z" fill="#36BB24"/>
<path d="M291.892 84.4951H170.193C168.281 84.4951 166.446 83.7494 165.094 82.422C163.741 81.0946 162.981 79.2942 162.981 77.417C162.981 75.5398 163.741 73.7394 165.094 72.412C166.446 71.0846 168.281 70.3389 170.193 70.3389H291.892C293.804 70.3389 295.639 71.0846 296.991 72.412C298.344 73.7394 299.103 75.5398 299.103 77.417C299.103 79.2942 298.344 81.0946 296.991 82.422C295.639 83.7494 293.804 84.4951 291.892 84.4951Z" fill="#CCCCCC"/>
<path d="M241.409 54.4131H170.193C168.281 54.4131 166.446 53.6673 165.094 52.3399C163.741 51.0125 162.981 49.2122 162.981 47.335C162.981 45.4577 163.741 43.6574 165.094 42.33C166.446 41.0026 168.281 40.2568 170.193 40.2568H241.409C243.322 40.2568 245.156 41.0026 246.509 42.33C247.861 43.6574 248.621 45.4577 248.621 47.335C248.621 49.2122 247.861 51.0125 246.509 52.3399C245.156 53.6673 243.322 54.4131 241.409 54.4131Z" fill="#CCCCCC"/>
</svg>
