<svg width="600" height="391" viewBox="0 0 600 391" fill="none" xmlns="http://www.w3.org/2000/svg">
<path d="M532.59 0.432129H0.325195V313.91H532.59V0.432129Z" fill="#E6E6E6"/>
<path d="M532.264 0H0V32.3992H532.264V0Z" fill="#36BB24"/>
<path d="M519.786 42.3506H12.2742V298.312H519.786V42.3506Z" fill="white"/>
<path d="M50.4381 21.4763C53.398 21.4763 55.7976 19.0767 55.7976 16.1168C55.7976 13.1568 53.398 10.7573 50.4381 10.7573C47.4781 10.7573 45.0786 13.1568 45.0786 16.1168C45.0786 19.0767 47.4781 21.4763 50.4381 21.4763Z" fill="white"/>
<path d="M70.7816 21.4763C73.7415 21.4763 76.1411 19.0767 76.1411 16.1168C76.1411 13.1568 73.7415 10.7573 70.7816 10.7573C67.8216 10.7573 65.4221 13.1568 65.4221 16.1168C65.4221 19.0767 67.8216 21.4763 70.7816 21.4763Z" fill="white"/>
<path d="M30.0416 21.4763C33.0016 21.4763 35.4011 19.0767 35.4011 16.1168C35.4011 13.1568 33.0016 10.7573 30.0416 10.7573C27.0816 10.7573 24.6821 13.1568 24.6821 16.1168C24.6821 19.0767 27.0816 21.4763 30.0416 21.4763Z" fill="white"/>
<path d="M460.595 86.5518H71.4653V96.7153H460.595V86.5518Z" fill="#E6E6E6"/>
<path d="M335.401 111.96H196.659V122.124H335.401V111.96Z" fill="#E6E6E6"/>
<path d="M335.401 163.5H196.659V173.664H335.401V163.5Z" fill="#E6E6E6"/>
<path d="M335.401 189.898H196.659V200.062H335.401V189.898Z" fill="#E6E6E6"/>
<path d="M404.231 137.369H127.829V147.533H404.231V137.369Z" fill="#E6E6E6"/>
<path d="M460.595 236.062H387.595V254.111H460.595V236.062Z" fill="#36BB24"/>
<path d="M575.734 388.526C574.413 387.676 573.295 386.547 572.457 385.219C571.62 383.89 571.084 382.394 570.887 380.836C570.691 379.278 570.838 377.695 571.319 376.2C571.8 374.705 572.603 373.334 573.672 372.183L565.599 257.625L588.852 259.88L589.491 372.067C591.306 373.99 592.352 376.512 592.432 379.155C592.511 381.798 591.619 384.378 589.923 386.407C588.227 388.436 585.846 389.772 583.231 390.162C580.616 390.553 577.948 389.971 575.734 388.526Z" fill="#9F616A"/>
<path d="M570.863 296.118C570.319 295.726 569.869 295.218 569.547 294.629C569.225 294.04 569.04 293.387 569.004 292.717L567.301 261.841C567.132 258.782 568.102 255.769 570.023 253.383C571.945 250.997 574.682 249.406 577.706 248.918C580.731 248.431 583.829 249.08 586.403 250.741C588.977 252.402 590.845 254.958 591.647 257.914L599.132 285.519C599.442 286.671 599.284 287.899 598.69 288.934C598.097 289.969 597.117 290.727 595.966 291.04L574.675 296.813C574.028 296.989 573.35 297.019 572.69 296.899C572.03 296.778 571.406 296.512 570.863 296.118Z" fill="#3F3D56"/>
<path d="M550.975 222.737C564.54 222.737 575.536 211.741 575.536 198.176C575.536 184.612 564.54 173.615 550.975 173.615C537.41 173.615 526.414 184.612 526.414 198.176C526.414 211.741 537.41 222.737 550.975 222.737Z" fill="#9F616A"/>
<path d="M461.971 246.431C462.094 246.971 462.174 247.519 462.211 248.071L505.168 272.853L515.609 266.842L526.741 281.414L504.404 297.335L455.396 258.672C453.397 259.412 451.22 259.526 449.155 258.998C447.09 258.47 445.235 257.327 443.836 255.719C442.436 254.111 441.56 252.116 441.323 249.998C441.085 247.88 441.498 245.74 442.507 243.862C443.516 241.984 445.072 240.458 446.969 239.487C448.866 238.515 451.014 238.144 453.127 238.423C455.239 238.702 457.217 239.618 458.797 241.048C460.377 242.479 461.484 244.356 461.971 246.431Z" fill="#9F616A"/>
<path d="M506.702 270.746C506.631 270.079 506.71 269.404 506.934 268.772C507.157 268.14 507.52 267.566 507.996 267.092L529.859 245.224C532.025 243.057 534.917 241.77 537.976 241.609C541.036 241.448 544.046 242.426 546.428 244.353C548.809 246.281 550.392 249.022 550.872 252.048C551.352 255.074 550.695 258.17 549.027 260.74L533.457 284.732C532.806 285.732 531.786 286.433 530.619 286.682C529.452 286.93 528.234 286.706 527.233 286.057L508.728 274.049C508.165 273.685 507.691 273.199 507.34 272.627C506.989 272.056 506.771 271.413 506.702 270.746Z" fill="#3F3D56"/>
<path d="M568.355 217.608C563.773 222.489 555.264 219.869 554.667 213.201C554.62 212.683 554.624 212.162 554.677 211.645C554.985 208.691 556.692 206.01 556.283 202.891C556.191 202.115 555.901 201.376 555.443 200.743C551.792 195.853 543.221 202.929 539.775 198.503C537.662 195.789 540.146 191.516 538.524 188.483C536.384 184.479 530.045 186.454 526.07 184.262C521.647 181.822 521.912 175.036 524.823 170.909C528.374 165.875 534.599 163.189 540.747 162.802C546.894 162.415 553 164.077 558.739 166.314C565.26 168.855 571.727 172.367 575.74 178.101C580.62 185.074 581.09 194.449 578.649 202.603C577.164 207.563 572.097 213.622 568.355 217.608Z" fill="#2F2E41"/>
<path d="M575.491 239.143C575.064 238.836 574.629 238.535 574.185 238.24C571.827 236.671 569.274 235.419 566.59 234.516V228.062H547.59V234.05C541.291 235.787 535.643 239.338 531.346 244.261C527.05 249.183 524.296 255.26 523.427 261.736L510.489 357.787C510.406 358.387 510.446 358.998 510.606 359.583C510.766 360.167 511.043 360.714 511.42 361.188C511.789 361.659 512.25 362.05 512.775 362.338C513.3 362.625 513.878 362.803 514.474 362.861C518.956 363.308 528.254 365.045 540.153 371.657C545.876 374.827 552.317 376.471 558.859 376.431C564.052 376.411 569.203 375.494 574.085 373.72C574.912 373.415 575.631 372.872 576.15 372.16C576.669 371.447 576.966 370.596 577.003 369.715C577.469 359.378 580.193 306.171 588.127 273.716C589.669 267.35 589.292 260.669 587.043 254.517C584.794 248.364 580.775 243.015 575.491 239.143Z" fill="#3F3D56"/>
</svg>
