<svg width="646" height="416" viewBox="0 0 646 416" fill="none" xmlns="http://www.w3.org/2000/svg">
<path d="M637.482 415.91H7.58201C5.57187 415.908 3.64474 415.108 2.22335 413.687C0.801966 412.265 0.00238184 410.338 0 408.328V7.58201C0.0021177 5.57179 0.801619 3.6445 2.22306 2.22306C3.6445 0.801619 5.57179 0.0021177 7.58201 0H637.482C639.492 0.0021177 641.42 0.801619 642.841 2.22306C644.262 3.6445 645.062 5.57179 645.064 7.58201V408.328C645.062 410.338 644.262 412.265 642.841 413.687C641.419 415.108 639.492 415.908 637.482 415.91ZM7.58201 3C6.36719 3.00132 5.2025 3.48449 4.3435 4.3435C3.48449 5.2025 3.00133 6.36719 3.00001 7.58201V408.328C3.00133 409.543 3.48449 410.707 4.3435 411.566C5.2025 412.425 6.36719 412.909 7.58201 412.91H637.482C638.697 412.909 639.862 412.425 640.721 411.566C641.58 410.707 642.063 409.543 642.064 408.328V7.58201C642.063 6.36719 641.58 5.2025 640.721 4.3435C639.862 3.48449 638.697 3.00132 637.482 3H7.58201Z" fill="#E6E6E6"/>
<path d="M474.325 59.0811H140.583C138.944 59.0829 137.373 59.7348 136.214 60.8938C135.055 62.0527 134.403 63.6241 134.401 65.2631V350.646C134.403 352.285 135.055 353.856 136.214 355.015C137.373 356.174 138.944 356.826 140.583 356.828H474.325C475.964 356.826 477.535 356.174 478.694 355.015C479.853 353.856 480.505 352.285 480.507 350.646V65.2631C480.505 63.6241 479.853 62.0527 478.694 60.8938C477.535 59.7348 475.964 59.0829 474.325 59.0811ZM478.025 350.647C478.025 351.63 477.635 352.572 476.942 353.268C476.248 353.965 475.308 354.358 474.325 354.363H140.583C139.6 354.36 138.658 353.967 137.964 353.27C137.271 352.574 136.882 351.63 136.883 350.647V65.2631C136.882 64.2799 137.271 63.3363 137.964 62.6396C138.658 61.9429 139.6 61.55 140.583 61.5471H474.325C475.308 61.5518 476.248 61.9453 476.942 62.6417C477.635 63.338 478.025 64.2804 478.025 65.2631V350.647Z" fill="#3F3D56"/>
<path d="M217.619 306.085C217.619 306.525 217.607 306.965 217.584 307.393C217.247 313.833 214.451 319.898 209.773 324.337C205.095 328.776 198.892 331.251 192.444 331.251C185.995 331.251 179.792 328.776 175.114 324.337C170.436 319.898 167.641 313.833 167.303 307.393C167.28 306.965 167.268 306.525 167.268 306.085C167.268 299.408 169.92 293.005 174.642 288.284C179.363 283.562 185.766 280.91 192.443 280.91C199.12 280.91 205.523 283.562 210.244 288.284C214.966 293.005 217.618 299.408 217.618 306.085H217.619Z" fill="#36BB24"/>
<path d="M448.391 289.298H250.58C249.494 289.339 248.467 289.799 247.713 290.582C246.96 291.364 246.539 292.408 246.539 293.495C246.539 294.581 246.96 295.625 247.713 296.408C248.467 297.191 249.494 297.651 250.58 297.692H448.391C449.503 297.732 450.585 297.329 451.4 296.572C452.216 295.815 452.697 294.765 452.739 293.653C452.781 292.541 452.38 291.458 451.624 290.642C450.869 289.825 449.82 289.342 448.708 289.298C448.603 289.294 448.497 289.294 448.391 289.298Z" fill="#36BB24"/>
<path d="M335.697 314.478H250.58C249.468 314.478 248.402 314.92 247.616 315.706C246.83 316.492 246.389 317.558 246.389 318.669C246.389 319.781 246.83 320.847 247.616 321.633C248.402 322.418 249.468 322.86 250.58 322.86H335.697C336.808 322.862 337.875 322.422 338.662 321.637C339.45 320.853 339.893 319.788 339.895 318.676C339.897 317.565 339.457 316.498 338.672 315.71C337.888 314.923 336.822 314.48 335.711 314.478H335.697Z" fill="#E6E6E6"/>
<path d="M553.614 258.163H219.87C218.001 258.161 216.209 257.418 214.888 256.096C213.567 254.775 212.823 252.983 212.821 251.114V104.648C212.823 102.779 213.567 100.988 214.888 99.6661C216.209 98.3446 218.001 97.6012 219.87 97.5991H553.61C555.479 97.6012 557.271 98.3446 558.592 99.6661C559.914 100.988 560.657 102.779 560.659 104.648V251.11C560.658 252.979 559.916 254.771 558.595 256.093C557.274 257.416 555.483 258.16 553.614 258.163Z" fill="#36BB24"/>
<path d="M287.841 149.518C286.728 149.47 285.642 149.865 284.82 150.618C283.999 151.37 283.51 152.418 283.462 153.531C283.413 154.644 283.809 155.73 284.561 156.552C285.314 157.373 286.362 157.862 287.474 157.91C287.597 157.915 287.719 157.915 287.841 157.91H485.648C486.729 157.863 487.75 157.4 488.499 156.618C489.247 155.837 489.665 154.796 489.665 153.714C489.665 152.632 489.247 151.592 488.499 150.81C487.75 150.028 486.729 149.565 485.648 149.518H287.841Z" fill="white"/>
<path d="M287.841 173.831C286.728 173.783 285.642 174.178 284.82 174.931C283.999 175.683 283.51 176.731 283.462 177.844C283.413 178.957 283.809 180.043 284.561 180.865C285.314 181.686 286.362 182.175 287.474 182.223C287.597 182.228 287.719 182.228 287.841 182.223H485.648C486.729 182.176 487.75 181.713 488.499 180.931C489.247 180.15 489.665 179.109 489.665 178.027C489.665 176.945 489.247 175.905 488.499 175.123C487.75 174.341 486.729 173.878 485.648 173.831H287.841Z" fill="white"/>
<path d="M287.841 197.848C286.76 197.895 285.739 198.358 284.99 199.139C284.242 199.921 283.824 200.962 283.824 202.044C283.824 203.126 284.242 204.166 284.99 204.948C285.739 205.73 286.76 206.193 287.841 206.24H372.958C373.509 206.264 374.059 206.179 374.578 205.99C375.096 205.802 375.572 205.513 375.979 205.14C376.385 204.768 376.715 204.319 376.948 203.819C377.181 203.319 377.313 202.778 377.337 202.227C377.361 201.676 377.277 201.126 377.088 200.607C376.899 200.089 376.61 199.613 376.238 199.206C375.865 198.8 375.416 198.47 374.916 198.237C374.416 198.004 373.876 197.872 373.325 197.848C373.202 197.842 373.08 197.842 372.958 197.848H287.841Z" fill="white"/>
<path d="M26.9131 26.55C29.7921 26.55 32.1261 24.2161 32.1261 21.337C32.1261 18.458 29.7921 16.124 26.9131 16.124C24.034 16.124 21.7001 18.458 21.7001 21.337C21.7001 24.2161 24.034 26.55 26.9131 26.55Z" fill="#36BB24"/>
<path d="M45.1581 26.55C48.0371 26.55 50.3711 24.2161 50.3711 21.337C50.3711 18.458 48.0371 16.124 45.1581 16.124C42.279 16.124 39.9451 18.458 39.9451 21.337C39.9451 24.2161 42.279 26.55 45.1581 26.55Z" fill="#36BB24"/>
</svg>
