<svg width="82" height="76" viewBox="0 0 82 76" fill="none" xmlns="http://www.w3.org/2000/svg">
<path d="M22.357 39.044C21.516 37.887 20.667 36.817 19.908 35.686C18.471 33.545 16.741 31.737 15.082 29.763C13.207 27.532 11.182 25.428 9.019 23.473C7.921 22.48 5.558 19.681 3.836 20.822C2.044 22.01 4.165 24.872 4.967 25.964C6.655 28.26 8.335 30.585 9.935 32.942C14.367 39.475 17.943 46.949 21.023 54.18C24.329 61.943 31.68 67.118 40.108 67.608C47.12 68.016 52.691 64.69 59.088 62.566C62.869 61.311 67.291 60.225 71.302 60.463C73.118 60.57 78.917 62.554 78.831 59.441C78.787 57.846 76.831 56.788 75.639 56.134C73.221 54.806 70.541 53.843 67.853 53.227C65.831 52.763 63.792 52.565 61.822 51.856C59.486 51.014 57.365 49.72 55.428 48.179C49.297 43.299 46.338 35.45 42.769 28.685C40.075 23.579 37.586 18.326 33.946 13.805C32.179 11.595 30.405 9.56799 28.251 7.69099C26.948 6.55599 24.883 4.66199 22.976 5.72799C21.184 6.72899 22.99 9.25299 23.955 10.305C26.835 13.441 29.395 17.268 31.53 20.8C31.914 21.436 35.858 30.211 35.858 30.211C35.858 30.211 33.866 27.736 33.716 27.496C31.282 23.599 28.847 20.098 25.997 16.723C23.226 13.441 22.388 12.275 20.382 10.488C18.651 8.94599 16.292 6.62299 13.879 6.26999C11.297 5.89299 10.457 8.02999 11.958 9.92699C13.27 11.585 14.789 12.932 16.26 14.448C18.067 16.31 19.902 18.628 21.368 20.775C21.942 21.615 27.273 29.959 28.476 33.642C28.476 33.642 23.248 26.606 22.882 26.142C19.484 21.838 16.244 17.746 11.758 14.356C11.503 14.163 10.247 13.514 9.591 13.295C7.406 12.963 6.583 14.518 7.463 16.402C8.246 18.081 9.675 19.06 10.904 20.368C14.367 24.055 17.488 28.626 19.874 33.064C20.899 34.97 21.366 36.909 22.357 39.044Z" fill="#FF6905"/>
<path d="M0 49.525C0.582 48.132 1.729 45.916 3.938 43.982C7.841 40.566 12.486 40.279 15.095 40.117C16.949 40.003 19.861 40.045 23.336 41.065C23.461 41.645 24.01 43.846 26.107 45.368C26.359 45.551 29.28 47.623 32.451 46.389C33.001 46.175 35.331 45.269 35.806 42.961C36.132 41.376 35.565 39.216 33.764 38.367C32.255 37.656 30.229 38.031 29.243 39.388C28.624 40.24 28.22 41.748 29.024 42.815C29.548 43.51 30.61 44.049 31.576 43.69C32.45 43.366 33.15 42.342 32.889 41.576C32.746 41.158 32.292 40.737 31.795 40.773C31.336 40.807 30.862 41.231 30.92 41.576C30.957 41.799 31.226 42.044 31.448 41.977C31.634 41.92 31.773 41.651 31.695 41.347C31.721 41.37 32.119 41.744 32.023 42.196C31.923 42.661 31.368 42.875 30.983 42.852C30.347 42.814 29.845 42.107 29.808 41.512C29.744 40.527 30.926 39.536 32.05 39.515C33.354 39.491 34.444 40.773 34.538 41.894C34.683 43.621 32.888 45.44 30.573 45.368C28.284 45.296 26.154 43.808 25.487 41.758C24.678 39.273 25.992 36.246 28.796 34.812C30.054 34.156 31.91 33.185 34.156 31.996C40.832 28.458 41.926 27.772 42.579 27.347C45.543 25.414 47.398 23.654 49.962 21.221C52.67 18.652 55.876 15.611 59.096 10.884C60.809 8.369 62.961 4.74 64.784 0C65.339 1.376 65.901 3.221 66.097 5.442C66.518 10.215 65.005 13.968 64.101 15.807C65.337 14.472 66.616 12.988 67.902 11.349C69.42 9.415 70.733 7.537 71.867 5.77C72.138 6.526 72.453 7.645 72.523 9.025C72.635 11.222 72.061 12.857 71.457 14.522C70.896 16.067 69.917 18.265 68.175 20.647C69.576 19.72 71.138 18.552 72.742 17.092C74.69 15.318 76.217 13.553 77.391 12.006C77.467 13.349 77.427 15.023 77.063 16.902C76.335 20.652 74.667 23.388 73.508 24.969C74.487 24.26 75.686 23.254 76.872 21.878C78.028 20.539 79.189 19.112 79.743 18.059C79.743 19.764 79.401 21.652 79.014 23.529C76.608 35.187 66.775 42.035 62.98 44.413C65.057 44.225 69.129 44.266 72.669 45.114C77.519 46.135 79.281 47.753 81.128 49.052C78.837 48.75 75.084 48.658 70.992 49.307C67.451 49.869 65.433 50.776 62.241 51.824C61.402 52.099 54.76 54.245 47.255 55.105C41.788 55.732 35.884 56.408 29.097 54.339C27.996 54.003 24.331 52.821 19.908 50.839C17.341 49.688 15.45 48.685 12.142 47.666C8.03 46.4 6.401 46.551 5.579 46.682C2.889 47.11 0.989 48.601 0 49.525Z" fill="#FFFDFD"/>
<path d="M5.98 45.614C7.949 44.766 9.761 44.298 11.258 44.136C14.045 43.839 16.467 44.182 17.193 44.847C17.66 45.276 17.919 45.674 17.685 46.215C17.4 46.874 16.461 47.071 15.852 47.008C14.294 46.844 13.856 46.406 12.352 46.051C11.277 45.796 8.148 45.461 5.98 45.614Z" fill="#D6DC92"/>
<path d="M13.017 71.296C12.976 71.199 16.981 68.412 22.315 68.233C24.216 68.17 24.907 68.446 28.769 69.109C35.077 70.191 38.232 70.733 41.458 70.639C44.906 70.54 47.037 69.983 52.397 68.889C57.358 67.877 59.353 68.232 61.476 68.67C64.455 69.287 66.718 70.552 68.149 71.515C66.359 70.922 63.712 70.31 60.601 70.639C57.735 70.944 56.273 71.858 53.381 72.937C51.538 73.625 46.581 75.475 41.021 75.562C35.02 75.657 29.828 73.674 28.222 73.046C25.19 71.859 24.404 71.064 21.768 70.639C16.768 69.835 13.041 71.352 13.017 71.296Z" fill="black"/>
</svg>
