<svg width="82" height="76" viewBox="0 0 82 76" fill="none" xmlns="http://www.w3.org/2000/svg">
<path d="M22.3569 39.044C21.5159 37.887 20.6669 36.817 19.9079 35.686C18.4709 33.545 16.7409 31.737 15.0819 29.763C13.2069 27.532 11.1819 25.428 9.01894 23.473C7.92094 22.48 5.55794 19.681 3.83594 20.822C2.04394 22.01 4.16494 24.872 4.96694 25.964C6.65494 28.26 8.33494 30.585 9.93494 32.942C14.3669 39.475 17.9429 46.949 21.0229 54.18C24.3289 61.943 31.6799 67.118 40.1079 67.608C47.1199 68.016 52.6909 64.69 59.0879 62.566C62.8689 61.311 67.2909 60.225 71.3019 60.463C73.1179 60.57 78.9169 62.554 78.8309 59.441C78.7869 57.846 76.8309 56.788 75.6389 56.134C73.2209 54.806 70.5409 53.843 67.8529 53.227C65.8309 52.763 63.7919 52.565 61.8219 51.856C59.4859 51.014 57.3649 49.72 55.4279 48.179C49.2969 43.299 46.3379 35.45 42.7689 28.685C40.0749 23.579 37.5859 18.326 33.9459 13.805C32.1789 11.595 30.4049 9.56805 28.2509 7.69105C26.9479 6.55605 24.8829 4.66205 22.9759 5.72805C21.1839 6.72905 22.9899 9.25305 23.9549 10.305C26.8349 13.441 29.3949 17.268 31.5299 20.8C31.9139 21.436 35.8579 30.211 35.8579 30.211C35.8579 30.211 33.8659 27.736 33.7159 27.496C31.2819 23.599 28.8469 20.098 25.9969 16.723C23.2259 13.441 22.3879 12.275 20.3819 10.488C18.6509 8.94605 16.2919 6.62305 13.8789 6.27005C11.2969 5.89305 10.4569 8.03005 11.9579 9.92705C13.2699 11.585 14.7889 12.932 16.2599 14.448C18.0669 16.31 19.9019 18.628 21.3679 20.775C21.9419 21.615 27.2729 29.959 28.4759 33.642C28.4759 33.642 23.2479 26.606 22.8819 26.142C19.4839 21.838 16.2439 17.746 11.7579 14.356C11.5029 14.163 10.2469 13.514 9.59094 13.295C7.40594 12.963 6.58294 14.518 7.46294 16.402C8.24594 18.081 9.67494 19.06 10.9039 20.368C14.3669 24.055 17.4879 28.626 19.8739 33.064C20.8989 34.97 21.3659 36.909 22.3569 39.044Z" fill="#B5C428"/>
<path d="M0 49.525C0.582 48.132 1.729 45.916 3.938 43.982C7.841 40.566 12.486 40.279 15.095 40.117C16.949 40.003 19.861 40.045 23.336 41.065C23.461 41.645 24.01 43.846 26.107 45.368C26.359 45.551 29.28 47.623 32.451 46.389C33.001 46.175 35.331 45.269 35.806 42.961C36.132 41.376 35.565 39.216 33.764 38.367C32.255 37.656 30.229 38.031 29.243 39.388C28.624 40.24 28.22 41.748 29.024 42.815C29.548 43.51 30.61 44.049 31.576 43.69C32.45 43.366 33.15 42.342 32.889 41.576C32.746 41.158 32.292 40.737 31.795 40.773C31.336 40.807 30.862 41.231 30.92 41.576C30.957 41.799 31.226 42.044 31.448 41.977C31.634 41.92 31.773 41.651 31.695 41.347C31.721 41.37 32.119 41.744 32.023 42.196C31.923 42.661 31.368 42.875 30.983 42.852C30.347 42.814 29.845 42.107 29.808 41.512C29.744 40.527 30.926 39.536 32.05 39.515C33.354 39.491 34.444 40.773 34.538 41.894C34.683 43.621 32.888 45.44 30.573 45.368C28.284 45.296 26.154 43.808 25.487 41.758C24.678 39.273 25.992 36.246 28.796 34.812C30.054 34.156 31.91 33.185 34.156 31.996C40.832 28.458 41.926 27.772 42.579 27.347C45.543 25.414 47.398 23.654 49.962 21.221C52.67 18.652 55.876 15.611 59.096 10.884C60.809 8.369 62.961 4.74 64.784 0C65.339 1.376 65.901 3.221 66.097 5.442C66.518 10.215 65.005 13.968 64.101 15.807C65.337 14.472 66.616 12.988 67.902 11.349C69.42 9.415 70.733 7.537 71.867 5.77C72.138 6.526 72.453 7.645 72.523 9.025C72.635 11.222 72.061 12.857 71.457 14.522C70.896 16.067 69.917 18.265 68.175 20.647C69.576 19.72 71.138 18.552 72.742 17.092C74.69 15.318 76.217 13.553 77.391 12.006C77.467 13.349 77.427 15.023 77.063 16.902C76.335 20.652 74.667 23.388 73.508 24.969C74.487 24.26 75.686 23.254 76.872 21.878C78.028 20.539 79.189 19.112 79.743 18.059C79.743 19.764 79.401 21.652 79.014 23.529C76.608 35.187 66.775 42.035 62.98 44.413C65.057 44.225 69.129 44.266 72.669 45.114C77.519 46.135 79.281 47.753 81.128 49.052C78.837 48.75 75.084 48.658 70.992 49.307C67.451 49.869 65.433 50.776 62.241 51.824C61.402 52.099 54.76 54.245 47.255 55.105C41.788 55.732 35.884 56.408 29.097 54.339C27.996 54.003 24.331 52.821 19.908 50.839C17.341 49.688 15.45 48.685 12.142 47.666C8.03 46.4 6.401 46.551 5.579 46.682C2.889 47.11 0.989 48.601 0 49.525Z" fill="#005568"/>
<path d="M5.97998 45.6141C7.94898 44.7661 9.76098 44.2981 11.258 44.1361C14.045 43.8391 16.467 44.1821 17.193 44.8471C17.66 45.2761 17.919 45.6741 17.685 46.2151C17.4 46.8741 16.461 47.0711 15.852 47.0081C14.294 46.8441 13.856 46.4061 12.352 46.0511C11.277 45.7961 8.14798 45.4611 5.97998 45.6141Z" fill="#D6DC92"/>
<path d="M13.017 71.296C12.976 71.199 16.981 68.412 22.315 68.233C24.216 68.17 24.907 68.446 28.769 69.109C35.077 70.191 38.232 70.733 41.458 70.639C44.906 70.54 47.037 69.983 52.397 68.889C57.358 67.877 59.353 68.232 61.476 68.67C64.455 69.287 66.718 70.552 68.149 71.515C66.359 70.922 63.712 70.31 60.601 70.639C57.735 70.944 56.273 71.858 53.381 72.937C51.538 73.625 46.581 75.475 41.021 75.562C35.02 75.657 29.828 73.674 28.222 73.046C25.19 71.859 24.404 71.064 21.768 70.639C16.768 69.835 13.041 71.352 13.017 71.296Z" fill="#005568"/>
</svg>
