<svg width="111" height="64" viewBox="0 0 111 64" fill="none" xmlns="http://www.w3.org/2000/svg">
<g filter="url(#filter0_dd_714_391)">
<path d="M53.6429 0.79957C54.8284 0.289171 56.1716 0.289172 57.3571 0.799571L59.6382 1.78169C60.5907 2.19178 61.6522 2.27507 62.657 2.01854L65.5395 1.28265C66.8534 0.947216 68.2482 1.19609 69.3649 1.96524L70.5674 2.79337C71.5036 3.43816 72.6419 3.72148 73.7712 3.59076L76.5992 3.26338C78.1382 3.08522 79.6648 3.68634 80.6691 4.86603C81.5407 5.88989 82.8134 6.48565 84.158 6.49926L87.0983 6.52902C88.3912 6.5421 89.5413 7.35346 89.9872 8.5671C90.3841 9.64726 91.3448 10.4201 92.4848 10.5765L95.5719 10.9999C96.7185 11.1571 97.5454 12.1785 97.4605 13.3327C97.384 14.3726 98.0506 15.3225 99.0545 15.6043L101.532 16.2994C102.652 16.6139 103.199 17.8801 102.66 18.9116C102.176 19.8376 102.563 20.9804 103.511 21.421L104.773 22.0083C105.944 22.5526 106.204 24.102 105.275 24.9986C104.459 25.7865 104.544 27.118 105.454 27.7959L105.557 27.8729C106.674 28.7061 106.581 30.4092 105.379 31.1151L104.821 31.4429C103.889 31.9901 103.647 33.2301 104.304 34.0877C105.043 35.0509 104.635 36.4542 103.495 36.8709L101.571 37.5738C100.603 37.9277 100.076 38.9726 100.367 39.9616C100.69 41.0589 100.005 42.1976 98.8852 42.428L96.0103 43.0192C94.9494 43.2374 94.139 44.097 93.9837 45.1689C93.8105 46.3637 92.8294 47.2771 91.6253 47.3645L88.5202 47.59C87.2829 47.6798 86.1667 48.3662 85.5282 49.4298C84.8027 50.6383 83.4694 51.3478 82.0618 51.2745L79.0946 51.1199C77.8656 51.0559 76.6605 51.4768 75.7387 52.2922L75.166 52.7988C74.0864 53.7538 72.6281 54.1601 71.2103 53.901L68.2707 53.3638C67.2147 53.1709 66.1245 53.3455 65.1816 53.8587L63.395 54.831C62.2472 55.4557 60.891 55.5739 59.6525 55.1571L56.9976 54.2639C56.026 53.937 54.974 53.937 54.0024 54.2639L51.3475 55.1571C50.109 55.5739 48.7528 55.4557 47.605 54.831L45.8184 53.8587C44.8755 53.3455 43.7853 53.1709 42.7293 53.3638L39.7897 53.901C38.3719 54.1601 36.9136 53.7538 35.834 52.7988L35.2613 52.2922C34.3395 51.4768 33.1344 51.0559 31.9054 51.1199L28.9382 51.2745C27.5306 51.3478 26.1973 50.6383 25.4718 49.4298C24.8333 48.3662 23.7171 47.6798 22.4798 47.59L19.3747 47.3645C18.1706 47.2771 17.1895 46.3637 17.0163 45.1689C16.861 44.097 16.0506 43.2374 14.9897 43.0192L12.1148 42.428C10.9945 42.1976 10.3104 41.0589 10.6331 39.9616C10.9239 38.9726 10.3968 37.9277 9.42853 37.5738L7.50515 36.8709C6.36505 36.4542 5.95683 35.0509 6.69554 34.0877C7.35328 33.2301 7.11124 31.9901 6.17925 31.4429L5.62107 31.1151C4.41899 30.4092 4.32553 28.7061 5.44314 27.8729L5.54638 27.7959C6.45572 27.118 6.54057 25.7865 5.72464 24.9986C4.79602 24.102 5.05609 22.5526 6.2266 22.0083L7.4893 21.421C8.43683 20.9804 8.8243 19.8376 8.34017 18.9116C7.80095 17.8801 8.34789 16.6139 9.46848 16.2994L11.9455 15.6043C12.9494 15.3225 13.616 14.3726 13.5395 13.3327C13.4546 12.1785 14.2815 11.1571 15.4281 10.9999L18.5151 10.5765C19.6552 10.4201 20.6159 9.64726 21.0128 8.5671C21.4587 7.35346 22.6088 6.5421 23.9017 6.52902L26.842 6.49926C28.1866 6.48565 29.4593 5.88989 30.3309 4.86603C31.3352 3.68633 32.8618 3.08522 34.4008 3.26338L37.2288 3.59075C38.3581 3.72148 39.4964 3.43816 40.4326 2.79337L41.6351 1.96524C42.7518 1.19609 44.1466 0.947216 45.4605 1.28265L48.343 2.01854C49.3478 2.27507 50.4093 2.19178 51.3618 1.78169L53.6429 0.79957Z" fill="white"/>
<path d="M53.8408 1.25879C54.9 0.802841 56.1 0.802841 57.1592 1.25879L59.4404 2.24121C60.4942 2.6949 61.6686 2.78664 62.7803 2.50293L65.6631 1.76758C66.837 1.46788 68.0832 1.68982 69.0811 2.37695L70.2842 3.20508C71.32 3.9184 72.5797 4.23252 73.8291 4.08789L76.6562 3.75977C78.0296 3.60079 79.3919 4.13775 80.2881 5.19043C81.2536 6.32451 82.664 6.98395 84.1533 6.99902L87.0938 7.0293C88.1786 7.04048 89.1433 7.721 89.5176 8.73926C89.9782 9.99301 91.0937 10.8908 92.417 11.0723L95.5039 11.4951C96.389 11.6165 97.0274 12.405 96.9619 13.2959C96.868 14.5729 97.6862 15.7398 98.9189 16.0859L101.396 16.7812C102.211 17.01 102.609 17.9299 102.217 18.6797C101.601 19.8585 102.094 21.313 103.3 21.874L104.562 22.4619C105.415 22.8583 105.604 23.9858 104.928 24.6387C103.89 25.6406 103.998 27.3339 105.154 28.1963L105.258 28.2734C106.089 28.8927 106.019 30.1587 105.126 30.6836L104.567 31.0117C103.377 31.7111 103.067 33.2956 103.907 34.3916C104.441 35.087 104.146 36.1006 103.323 36.4014L101.399 37.1045C100.184 37.549 99.5225 38.8607 99.8877 40.1025C100.128 40.9192 99.618 41.767 98.7842 41.9385L95.9092 42.5293C94.6422 42.79 93.6748 43.8175 93.4893 45.0977C93.3496 46.0599 92.5587 46.7958 91.5889 46.8662L88.4844 47.0908C87.0848 47.1925 85.8219 47.9697 85.0996 49.1729C84.4693 50.2227 83.3108 50.8391 82.0879 50.7754L79.1211 50.6201C77.7612 50.5493 76.4272 51.0158 75.4072 51.918L74.835 52.4248C73.8703 53.278 72.5666 53.6407 71.2998 53.4092L68.3604 52.8721C67.192 52.6586 65.9856 52.8522 64.9424 53.4199L63.1562 54.3916C62.1307 54.9498 60.9182 55.0559 59.8115 54.6836L57.1572 53.79C56.0821 53.4283 54.9179 53.4283 53.8428 53.79L51.1885 54.6836C50.0818 55.0559 48.8693 54.9498 47.8438 54.3916L46.0576 53.4199C45.0144 52.8522 43.808 52.6586 42.6396 52.8721L39.7002 53.4092C38.4334 53.6407 37.1297 53.278 36.165 52.4248L35.5928 51.918C34.5728 51.0158 33.2388 50.5493 31.8789 50.6201L28.9121 50.7754C27.6892 50.8391 26.5307 50.2227 25.9004 49.1729C25.1781 47.9697 23.9152 47.1925 22.5156 47.0908L19.4111 46.8662C18.4413 46.7958 17.6504 46.0599 17.5107 45.0977C17.3252 43.8175 16.3578 42.79 15.0908 42.5293L12.2158 41.9385C11.382 41.767 10.8722 40.9192 11.1123 40.1025C11.4775 38.8607 10.8162 37.549 9.60059 37.1045L7.67676 36.4014C6.85368 36.1006 6.55947 35.087 7.09277 34.3916C7.93292 33.2956 7.62347 31.7111 6.43262 31.0117L5.87402 30.6836C4.98072 30.1587 4.91148 28.8927 5.74219 28.2734L5.8457 28.1963C7.00178 27.3339 7.10986 25.6406 6.07227 24.6387C5.39614 23.9858 5.58529 22.8583 6.4375 22.4619L7.7002 21.874C8.90623 21.313 9.39946 19.8585 8.7832 18.6797C8.39138 17.9299 8.78901 17.01 9.60352 16.7812L12.0811 16.0859C13.3138 15.7398 14.132 14.5729 14.0381 13.2959C13.9726 12.405 14.611 11.6165 15.4961 11.4951L18.583 11.0723C19.9063 10.8908 21.0218 9.99301 21.4824 8.73926C21.8568 7.72085 22.8222 7.04028 23.9072 7.0293L26.8467 6.99902C28.336 6.98395 29.7464 6.32451 30.7119 5.19043C31.6081 4.13775 32.9704 3.60079 34.3438 3.75977L37.1709 4.08789C38.4203 4.23252 39.68 3.9184 40.7158 3.20508L41.9189 2.37695C42.9168 1.68982 44.163 1.46788 45.3369 1.76758L48.2197 2.50293C49.3314 2.78664 50.5058 2.6949 51.5596 2.24121L53.8408 1.25879Z" stroke="#FF6905"/>
</g>
<defs>
<filter id="filter0_dd_714_391" x="0.65918" y="0.416779" width="109.682" height="62.9856" filterUnits="userSpaceOnUse" color-interpolation-filters="sRGB">
<feFlood flood-opacity="0" result="BackgroundImageFix"/>
<feColorMatrix in="SourceAlpha" type="matrix" values="0 0 0 0 0 0 0 0 0 0 0 0 0 0 0 0 0 0 127 0" result="hardAlpha"/>
<feOffset dy="3"/>
<feComposite in2="hardAlpha" operator="out"/>
<feColorMatrix type="matrix" values="0 0 0 0 1 0 0 0 0 0.4125 0 0 0 0 0.0208332 0 0 0 1 0"/>
<feBlend mode="normal" in2="BackgroundImageFix" result="effect1_dropShadow_714_391"/>
<feColorMatrix in="SourceAlpha" type="matrix" values="0 0 0 0 0 0 0 0 0 0 0 0 0 0 0 0 0 0 127 0" result="hardAlpha"/>
<feOffset dy="4"/>
<feGaussianBlur stdDeviation="2"/>
<feComposite in2="hardAlpha" operator="out"/>
<feColorMatrix type="matrix" values="0 0 0 0 0 0 0 0 0 0 0 0 0 0 0 0 0 0 0.25 0"/>
<feBlend mode="normal" in2="effect1_dropShadow_714_391" result="effect2_dropShadow_714_391"/>
<feBlend mode="normal" in="SourceGraphic" in2="effect2_dropShadow_714_391" result="shape"/>
</filter>
</defs>
</svg>
