<svg width="24" height="24" viewBox="0 0 24 24" fill="none" xmlns="http://www.w3.org/2000/svg">
<path d="M21.7001 10.3L12.7 2.30001C12.3 2.00001 11.8 2.00001 11.4 2.30001L2.40005 10.3C2.00005 10.7 1.90005 11.3 2.30005 11.7C2.70005 12.1 3.30005 12.2 3.70005 11.8L4.00005 11.4V21C4.00005 21.6 4.40005 22 5.00005 22H19C19.6 22 20 21.6 20 21V11.4L20.3 11.7C20.7 12.1 21.3001 12 21.7001 11.6C22.1001 11.3 22.1001 10.6 21.7001 10.3ZM14 15H13V16C13 16.6 12.6 17 12 17C11.4 17 11 16.6 11 16V15H10.0001C9.40005 15 9.00005 14.6 9.00005 14C9.00005 13.4 9.40005 13 10.0001 13H11V12C11 11.4 11.4 11 12 11C12.6 11 13 11.4 13 12V13H14C14.6 13 15 13.4 15 14C15 14.6 14.6 15 14 15Z" fill="white"/>
</svg>
