<svg width="556" height="519" viewBox="0 0 556 519" fill="none" xmlns="http://www.w3.org/2000/svg">
<g clip-path="url(#clip0_154_196)">
<path d="M344.152 420.488V511.603C328.9 515.081 313.156 517.386 297.038 518.399C290.744 518.797 284.398 519 278 519C255.663 519 233.946 516.541 213.136 511.896C210.958 511.414 208.781 510.904 206.626 510.359C204.47 509.835 202.323 509.277 200.19 508.697V420.488H344.152Z" fill="#090814"/>
<path d="M200.931 261.093L160.826 365.261L120.723 356.653L170.203 250.853C166.531 243.901 165.908 234.908 169.255 226.156C175.111 210.843 190.864 202.097 204.441 206.621C218.017 211.145 224.276 227.226 218.419 242.539C215.072 251.291 208.489 257.882 200.931 261.093Z" fill="#ED9DA0"/>
<path d="M203.601 263.435C203.233 263.435 202.861 263.396 202.494 263.315C201.068 263.004 199.884 262.118 199.249 260.886L186.821 236.805C186.106 235.42 186.194 233.809 187.056 232.498L215.504 189.186C216.274 188.014 217.555 187.244 219.016 187.073L224.142 186.475C226.119 186.25 228.084 187.199 229.012 188.853L240.308 208.982C241.104 210.402 241.028 212.124 240.111 213.479L207.669 261.34C207.37 261.78 206.995 262.165 206.558 262.483C205.7 263.108 204.662 263.435 203.601 263.435Z" fill="black"/>
<path d="M204.761 254.027C204.612 254.027 204.461 254.019 204.31 254.001C202.911 253.846 201.734 252.985 201.239 251.753L194.97 236.167C194.56 235.148 194.674 234.032 195.282 233.105L220.221 195.048C220.899 194.014 222.077 193.388 223.375 193.372C224.727 193.386 225.872 193.956 226.579 194.974L236.519 209.312C237.341 210.496 237.322 212.019 236.473 213.187L207.861 252.492C207.156 253.462 205.995 254.027 204.761 254.027Z" fill="#6C63FF"/>
<path d="M324.856 190.893C326.34 161.143 301.708 135.903 269.837 134.517C237.966 133.131 210.926 156.124 209.442 185.874C208.238 210.001 224.213 231.16 247.295 239.036L255.016 308.341L314.094 266.575C314.094 266.575 302.537 251.434 296.771 234.676C312.824 225.707 323.92 209.646 324.856 190.893Z" fill="#ED9DA0"/>
<path d="M210.09 482.537L203.947 475.922L215.545 420.488L221.202 393.448L222.34 387.986L245.261 278.444L247.76 263.258L249.923 262.601L250.2 262.517L301.221 246.962L301.916 246.745L309.1 244.559L328.504 259.165L354.373 509.081C350.991 509.982 347.586 510.827 344.152 511.603C328.9 515.081 313.156 517.386 297.038 518.399C290.744 518.797 284.398 519 278 519C255.663 519 233.946 516.541 213.136 511.896C204.942 499.26 220.222 493.448 220.222 493.448L210.09 482.537Z" fill="#6C63FF"/>
<path d="M252.146 275.524L251.592 277.606L222.34 387.986L221.472 391.276L221.202 393.448L217.828 420.488L210.09 482.537L206.626 510.359C204.471 509.835 202.323 509.277 200.19 508.697C189.893 505.903 179.843 502.564 170.078 498.722C171.919 457.474 185.568 396.906 185.793 395.893C177 411.079 114.44 427.431 114.44 427.431L89.4094 411.114V365.5L113.19 335.115L138.229 296.556C139.823 291.73 142.203 288.293 145.114 285.897C148.227 283.32 151.946 281.943 155.95 281.329C168.274 279.443 183.308 284.8 191.719 285.017C194.099 285.087 195.955 284.737 197.062 283.704C197.623 283.18 198.244 282.677 198.918 282.195C207.269 276.188 223.35 273.184 223.35 273.184L249.01 254.561L249.077 254.995L250.2 262.518L252.146 275.524Z" fill="#090814"/>
<path d="M289.049 152.976C282.376 155.569 274.286 154.683 268.437 150.718C254.118 157.936 236.897 159.982 221.098 156.341C218.745 162.175 214.002 167.136 208.061 169.981C207.826 161.906 210.793 153.783 216.263 147.524C211.298 149.607 206.332 151.69 201.366 153.773C205.074 148.774 208.782 143.775 212.49 138.776L213.335 138.094C208.854 136.949 204.372 135.804 199.89 134.659C208.365 130.582 218.224 129.06 227.653 130.372C226 126.731 222.255 123.987 218.072 123.353C227.962 121.398 237.853 119.444 247.743 117.49L247.405 118.626C260.672 115.836 274.323 113.03 287.758 114.994C301.194 116.959 314.549 124.832 318.363 137.016L318.426 136.363C326.482 136.527 334.357 140.386 339.078 146.481C343.799 152.576 345.256 160.766 342.899 167.958C340.072 176.584 332.145 183.923 332.56 192.936L332.196 193.007C334.821 206.772 309.026 226.914 296.582 234.694C301.855 232.398 308.089 223.584 306.596 218.335C305.104 213.085 318.654 193.349 312.855 193.796C309.6 194.047 291.933 189.442 289.5 182.858C287.451 177.31 285.384 171.314 287.18 165.691C287.889 163.472 289.172 161.44 289.839 159.21C290.505 156.98 290.427 154.333 288.714 152.659L289.049 152.976Z" fill="#090814"/>
<path d="M176.103 360.082L200.192 277.861C200.192 277.861 174.242 294.22 158.446 265.008L114.443 333.949L176.103 360.082Z" fill="#090814"/>
<path d="M434.87 473.764C428.375 477.92 421.684 481.818 414.808 485.443L420.495 470.676L434.87 473.764Z" fill="#ED9DA0"/>
<path d="M465.798 450.832C456.1 459.137 445.766 466.806 434.87 473.764C428.375 477.92 421.684 481.818 414.808 485.443C407.572 489.278 400.133 492.812 392.507 496.033C392.036 496.235 391.565 496.431 391.086 496.626C379.263 501.551 366.997 505.721 354.373 509.081C350.991 509.982 347.586 510.827 344.152 511.603C328.9 515.081 313.156 517.386 297.038 518.399C293.355 489.55 289.464 454.226 287.407 420.488C284.562 373.903 285.214 330.351 294.725 311.065C294.725 311.065 298.826 293.476 300.973 275.852C302.32 264.788 302.904 253.716 301.221 246.962C300.352 243.462 298.87 241.122 296.581 240.535C296.581 240.535 297.494 240.507 299.027 240.528H299.035C307.304 240.668 333.705 242.421 334.76 259.165L407.369 287.21L465.798 450.832Z" fill="#090814"/>
<path d="M399.25 467.142L392.507 496.033C392.036 496.235 391.564 496.431 391.086 496.626L397.962 467.177L375.461 391.786L376.665 391.478L399.25 467.142Z" fill="white"/>
</g>
<defs>
<clipPath id="clip0_154_196">
<rect width="556" height="519" fill="white"/>
</clipPath>
</defs>
</svg>
